<?xml version="1.0" standalone="no"?>
<!DOCTYPE svg PUBLIC "-//W3C//DTD SVG 20010904//EN"
 "http://www.w3.org/TR/2001/REC-SVG-20010904/DTD/svg10.dtd">
<svg version="1.0" xmlns="http://www.w3.org/2000/svg"
 width="512.000000pt" height="512.000000pt" viewBox="0 0 512.000000 512.000000"
 preserveAspectRatio="xMidYMid meet">
<metadata>
Created by potrace 1.11, written by Peter Selinger 2001-2013
</metadata>
<g transform="translate(0.000000,512.000000) scale(0.100000,-0.100000)"
fill="#000000" stroke="none">
<path d="M2405 5031 c-188 -109 -620 -359 -658 -380 -16 -9 -36 -20 -45 -26
-9 -5 -60 -34 -112 -64 -52 -30 -103 -61 -114 -70 -10 -9 -20 -15 -22 -13 -2
1 -14 -4 -27 -12 -12 -8 -141 -82 -287 -166 -146 -84 -323 -186 -394 -228 -72
-41 -144 -82 -160 -92 -17 -10 -79 -45 -137 -79 l-106 -61 0 -1280 0 -1280
101 -58 c56 -32 412 -238 791 -457 380 -219 776 -448 880 -508 105 -60 226
-130 270 -156 44 -26 87 -50 95 -54 8 -4 30 -16 47 -27 l33 -20 50 30 c28 17
53 30 56 30 3 0 30 16 60 35 30 19 56 35 59 35 3 0 28 15 57 32 29 18 65 40
81 48 31 17 115 66 477 275 135 78 364 211 510 295 146 84 280 161 298 171 17
11 47 27 65 37 69 40 375 217 437 254 l65 39 1 1279 1 1280 -41 24 c-23 13
-57 33 -76 44 -72 40 -336 192 -350 202 -15 9 -74 43 -165 95 -27 15 -104 59
-170 98 -66 38 -136 79 -155 90 -38 21 -475 273 -527 303 -131 77 -198 114
-205 114 -4 0 -8 5 -8 10 0 6 -4 10 -9 10 -6 0 -96 50 -201 110 -104 61 -207
120 -228 131 -20 12 -46 28 -57 35 -11 8 -22 14 -25 13 -3 0 -72 -40 -155 -88z"/>
</g>
</svg>
