<?xml version="1.0" encoding="UTF-8" standalone="no"?> <svg width="48" height="48" viewBox="0 0 48 48" fill="none" xmlns="http://www.w3.org/2000/svg">
<path d="M24 5C24.2652 5 24.5196 4.89464 24.7071 4.70711C24.8946 4.51957 25 4.26522 25 4V2C25 1.73478 24.8946 1.48043 24.7071 1.29289C24.5196 1.10536 24.2652 1 24 1C23.7348 1 23.4804 1.10536 23.2929 1.29289C23.1054 1.48043 23 1.73478 23 2V4C23 4.26522 23.1054 4.51957 23.2929 4.70711C23.4804 4.89464 23.7348 5 24 5Z" fill="black"/>
<path d="M43 20H41C40.7348 20 40.4804 20.1054 40.2929 20.2929C40.1054 20.4804 40 20.7348 40 21C40 21.2652 40.1054 21.5196 40.2929 21.7071C40.4804 21.8946 40.7348 22 41 22H43C43.2652 22 43.5196 21.8946 43.7071 21.7071C43.8946 21.5196 44 21.2652 44 21C44 20.7348 43.8946 20.4804 43.7071 20.2929C43.5196 20.1054 43.2652 20 43 20Z" fill="black"/>
<path d="M7 20H5C4.73478 20 4.48043 20.1054 4.29289 20.2929C4.10536 20.4804 4 20.7348 4 21C4 21.2652 4.10536 21.5196 4.29289 21.7071C4.48043 21.8946 4.73478 22 5 22H7C7.26522 22 7.51957 21.8946 7.70711 21.7071C7.89464 21.5196 8 21.2652 8 21C8 20.7348 7.89464 20.4804 7.70711 20.2929C7.51957 20.1054 7.26522 20 7 20Z" fill="black"/>
<path d="M11.272 9.68601C11.4606 9.86817 11.7132 9.96897 11.9754 9.96669C12.2376 9.96441 12.4884 9.85924 12.6738 9.67383C12.8592 9.48842 12.9644 9.23761 12.9667 8.97541C12.969 8.71322 12.8682 8.46062 12.686 8.27201L11.272 6.85801C11.0834 6.67585 10.8308 6.57506 10.5686 6.57734C10.3064 6.57962 10.0556 6.68479 9.87019 6.87019C9.68479 7.0556 9.57962 7.30641 9.57734 7.56861C9.57506 7.83081 9.67585 8.08341 9.85801 8.27201L11.272 9.68601Z" fill="black"/>
<path d="M36.728 32.313C36.6351 32.2202 36.5248 32.1465 36.4035 32.0963C36.2821 32.0461 36.152 32.0202 36.0207 32.0203C35.8893 32.0203 35.7593 32.0463 35.6379 32.0966C35.5166 32.1469 35.4064 32.2206 35.3135 32.3135C35.2207 32.4064 35.147 32.5167 35.0968 32.6381C35.0466 32.7594 35.0208 32.8895 35.0208 33.0209C35.0209 33.1522 35.0468 33.2823 35.0971 33.4036C35.1474 33.5249 35.2211 33.6352 35.314 33.728L36.728 35.142C36.9166 35.3242 37.1692 35.4249 37.4314 35.4227C37.6936 35.4204 37.9444 35.3152 38.1298 35.1298C38.3152 34.9444 38.4204 34.6936 38.4227 34.4314C38.425 34.1692 38.3242 33.9166 38.142 33.728L36.728 32.313Z" fill="black"/>
<path d="M36.728 6.85799L35.314 8.27199C35.2185 8.36424 35.1423 8.47458 35.0899 8.59659C35.0375 8.71859 35.0099 8.84981 35.0088 8.98259C35.0076 9.11537 35.0329 9.24705 35.0832 9.36995C35.1335 9.49284 35.2077 9.60449 35.3016 9.69839C35.3955 9.79228 35.5072 9.86653 35.6301 9.91681C35.753 9.96709 35.8846 9.9924 36.0174 9.99124C36.1502 9.99009 36.2814 9.9625 36.4034 9.91009C36.5254 9.85768 36.6358 9.7815 36.728 9.68599L38.142 8.27199C38.2375 8.17975 38.3137 8.0694 38.3661 7.9474C38.4185 7.82539 38.4461 7.69417 38.4473 7.56139C38.4484 7.42861 38.4231 7.29693 38.3728 7.17404C38.3226 7.05114 38.2483 6.93949 38.1544 6.8456C38.0605 6.7517 37.9489 6.67745 37.826 6.62717C37.7031 6.57689 37.5714 6.55159 37.4386 6.55274C37.3058 6.5539 37.1746 6.58148 37.0526 6.63389C36.9306 6.6863 36.8203 6.76248 36.728 6.85799V6.85799Z" fill="black"/>
<path d="M11.272 32.313L9.85799 33.728C9.76248 33.8202 9.6863 33.9306 9.63389 34.0526C9.58148 34.1746 9.5539 34.3058 9.55274 34.4386C9.55159 34.5714 9.57689 34.7031 9.62717 34.826C9.67745 34.9488 9.7517 35.0605 9.8456 35.1544C9.93949 35.2483 10.0511 35.3225 10.174 35.3728C10.2969 35.4231 10.4286 35.4484 10.5614 35.4472C10.6942 35.4461 10.8254 35.4185 10.9474 35.3661C11.0694 35.3137 11.1797 35.2375 11.272 35.142L12.686 33.728C12.7789 33.6352 12.8526 33.5249 12.9029 33.4036C12.9532 33.2823 12.9791 33.1522 12.9792 33.0209C12.9792 32.8895 12.9534 32.7594 12.9032 32.6381C12.853 32.5167 12.7793 32.4064 12.6865 32.3135C12.5936 32.2206 12.4834 32.1469 12.3621 32.0966C12.2407 32.0463 12.1107 32.0203 11.9793 32.0203C11.848 32.0202 11.7179 32.0461 11.5966 32.0963C11.4752 32.1465 11.3649 32.2202 11.272 32.313V32.313Z" fill="black"/>
<path d="M24 7C20.2882 7.00397 16.7295 8.48024 14.1049 11.1049C11.4802 13.7295 10.004 17.2882 10 21C9.94585 22.9532 10.2943 24.8967 11.0235 26.7094C11.7528 28.5222 12.8473 30.1655 14.239 31.537C15.1007 32.3491 15.7894 33.3269 16.2639 34.4117C16.7383 35.4965 16.9887 36.666 17 37.85V40C17.0026 40.6183 17.1961 41.2206 17.5541 41.7247C17.9121 42.2288 18.4171 42.6099 19 42.816V43C19 44.0609 19.4214 45.0783 20.1716 45.8284C20.9217 46.5786 21.9391 47 23 47H25C26.0609 47 27.0783 46.5786 27.8284 45.8284C28.5786 45.0783 29 44.0609 29 43V42.816C29.5829 42.6099 30.0879 42.2288 30.4459 41.7247C30.8039 41.2206 30.9974 40.6183 31 40V37.85C31.0113 36.666 31.2617 35.4965 31.7361 34.4117C32.2106 33.3269 32.8993 32.3491 33.761 31.537C35.1527 30.1655 36.2472 28.5222 36.9765 26.7094C37.7058 24.8967 38.0542 22.9532 38 21C37.996 17.2882 36.5198 13.7295 33.8951 11.1049C31.2705 8.48024 27.7118 7.00397 24 7ZM25 45H23C22.4696 45 21.9609 44.7893 21.5858 44.4142C21.2107 44.0391 21 43.5304 21 43H27C27 43.5304 26.7893 44.0391 26.4142 44.4142C26.0391 44.7893 25.5304 45 25 45ZM28 41H20C19.7348 41 19.4804 40.8946 19.2929 40.7071C19.1054 40.5196 19 40.2652 19 40V39H29V40C29 40.2652 28.8947 40.5196 28.7071 40.7071C28.5196 40.8946 28.2652 41 28 41ZM21 28H20C19.8022 28 19.6089 27.9414 19.4444 27.8315C19.28 27.7216 19.1518 27.5654 19.0761 27.3827C19.0004 27.2 18.9806 26.9989 19.0192 26.8049C19.0578 26.6109 19.153 26.4327 19.2929 26.2929C19.4328 26.153 19.6109 26.0578 19.8049 26.0192C19.9989 25.9806 20.2 26.0004 20.3827 26.0761C20.5654 26.1518 20.7216 26.28 20.8315 26.4444C20.9414 26.6089 21 26.8022 21 27V28ZM23 30H25V37H23V30ZM32.366 30.1C30.4533 31.9182 29.269 34.3714 29.035 37H27V30H28C28.5934 30 29.1734 29.8241 29.6667 29.4944C30.1601 29.1648 30.5446 28.6962 30.7716 28.1481C30.9987 27.5999 31.0581 26.9967 30.9424 26.4147C30.8266 25.8328 30.5409 25.2982 30.1213 24.8787C29.7018 24.4591 29.1672 24.1734 28.5853 24.0576C28.0033 23.9419 27.4001 24.0013 26.852 24.2284C26.3038 24.4554 25.8352 24.8399 25.5056 25.3333C25.176 25.8266 25 26.4067 25 27V28H23V27C23 26.4067 22.8241 25.8266 22.4944 25.3333C22.1648 24.8399 21.6962 24.4554 21.1481 24.2284C20.5999 24.0013 19.9967 23.9419 19.4147 24.0576C18.8328 24.1734 18.2982 24.4591 17.8787 24.8787C17.4591 25.2982 17.1734 25.8328 17.0577 26.4147C16.9419 26.9967 17.0013 27.5999 17.2284 28.1481C17.4554 28.6962 17.84 29.1648 18.3333 29.4944C18.8266 29.8241 19.4067 30 20 30H21V37H18.965C18.731 34.3714 17.5467 31.9182 15.634 30.1C14.4363 28.9137 13.4956 27.4935 12.8704 25.928C12.2453 24.3625 11.949 22.685 12 21C12 17.8174 13.2643 14.7652 15.5147 12.5147C17.7652 10.2643 20.8174 9 24 9C27.1826 9 30.2349 10.2643 32.4853 12.5147C34.7357 14.7652 36 17.8174 36 21C36.051 22.685 35.7548 24.3625 35.1296 25.928C34.5044 27.4935 33.5637 28.9137 32.366 30.1V30.1ZM27 28V27C27 26.8022 27.0587 26.6089 27.1685 26.4444C27.2784 26.28 27.4346 26.1518 27.6173 26.0761C27.8001 26.0004 28.0011 25.9806 28.1951 26.0192C28.3891 26.0578 28.5673 26.153 28.7071 26.2929C28.847 26.4327 28.9422 26.6109 28.9808 26.8049C29.0194 26.9989 28.9996 27.2 28.9239 27.3827C28.8482 27.5654 28.72 27.7216 28.5556 27.8315C28.3911 27.9414 28.1978 28 28 28H27Z" fill="black"/>
</svg>
