<svg width="25" height="25" viewBox="0 0 25 25" fill="none" xmlns="http://www.w3.org/2000/svg">
<g clip-path="url(#clip0_252469_6)">
<path d="M23.324 6.22547C22.2061 4.31045 20.6899 2.7942 18.7748 1.67644C16.8594 0.558738 14.7684 0 12.5004 0C10.2325 0 8.14095 0.558738 6.22587 1.67644C4.31068 2.79403 2.79443 4.31028 1.67661 6.22547C0.558738 8.14078 0 10.2324 0 12.5C0 14.7678 0.558909 16.8591 1.67644 18.7745C2.7942 20.6895 4.31045 22.2057 6.22564 23.3236C8.14095 24.4413 10.2324 25.0001 12.5001 25.0001C14.7679 25.0001 16.8596 24.4413 18.7748 23.3236C20.6898 22.2061 22.206 20.6895 23.3237 18.7745C24.4413 16.8592 24.9999 14.7677 24.9999 12.5C25 10.2321 24.4413 8.14049 23.324 6.22547ZM20.1662 16.9433C19.3741 18.2996 18.3 19.3737 16.9437 20.1662C15.5874 20.9583 14.1064 21.3539 12.5002 21.3539C10.8944 21.3539 9.41326 20.9583 8.05681 20.1662C6.70052 19.3737 5.62637 18.2996 4.8343 16.9433C4.04206 15.587 3.64608 14.1059 3.64608 12.5C3.64608 10.894 4.04223 9.41292 4.8343 8.05663C5.6262 6.70035 6.70064 5.62597 8.05681 4.83396C9.41309 4.04183 10.8942 3.64591 12.5002 3.64591C14.1063 3.64591 15.5874 4.04183 16.9437 4.83396C18.3 5.62603 19.3742 6.70035 20.1662 8.05663C20.9583 9.41292 21.3542 10.894 21.3542 12.5C21.3542 14.1059 20.9583 15.587 20.1662 16.9433Z" fill="white"/>
<path d="M17.7086 12.5003H14.5838V6.77077C14.5838 6.61879 14.5346 6.49411 14.4371 6.3964C14.34 6.29897 14.2151 6.25 14.0633 6.25H10.9379C10.7861 6.25 10.6612 6.29897 10.5636 6.3964C10.4659 6.49417 10.4171 6.61879 10.4171 6.77077V12.5001H7.29192C7.05329 12.5001 6.89047 12.6087 6.80359 12.8256C6.71671 13.032 6.7549 13.2216 6.91755 13.3954L12.126 18.6037C12.2455 18.7013 12.3702 18.7501 12.5004 18.7501C12.6304 18.7501 12.7553 18.7013 12.8749 18.6037L18.067 13.4118C18.1754 13.2817 18.2295 13.151 18.2295 13.0212C18.2295 12.8695 18.1808 12.7446 18.0828 12.6467C17.9854 12.5491 17.8606 12.5003 17.7086 12.5003Z" fill="white"/>
</g>
<defs>
<clipPath id="clip0_252469_6">
<rect width="25" height="25" fill="white"/>
</clipPath>
</defs>
</svg>
