<svg width="51" height="51" viewBox="0 0 51 51" fill="none" xmlns="http://www.w3.org/2000/svg">
<path fill-rule="evenodd" clip-rule="evenodd" d="M48.4032 47.7474V47.7475H50.6049V50.705H0.128906V47.7475H2.33063V39.762H5.48538V19.5847H2.33063V11.2751L25.3669 0.705078L48.4032 11.2751V19.5848H45.2485V39.7619H48.4032V47.7474ZM5.28821 13.1722V16.6271H45.4456V13.1721L25.3669 3.9592L5.28821 13.1722ZM42.2908 39.7621V19.5848H37.1691V39.762V39.7621H42.2908ZM34.2117 39.7621V19.5848H30.8854V39.7621H34.2117ZM27.9277 39.7621V19.5848H22.8061V39.7621H27.9277ZM19.8485 39.762V19.5848H16.5222V39.762H19.8485ZM13.5647 39.7621V19.5848H8.44296V39.7621H13.5647ZM5.28821 47.7474H45.4455V42.7195H5.28821V47.7474ZM20.7334 13.8996C20.7334 11.3446 22.812 9.26602 25.3669 9.26602C27.9219 9.26602 30.0005 11.3445 30.0005 13.8996H27.0429C27.0429 12.9754 26.2911 12.2236 25.3669 12.2236C24.4428 12.2236 23.6909 12.9754 23.6909 13.8996H20.7334Z" fill="white"/>
</svg>
