<svg width="352" height="609" viewBox="0 0 352 609" fill="none" xmlns="http://www.w3.org/2000/svg">
<rect width="352" height="609" fill="#E5E5E5"/>
<g clip-path="url(#clip0)">
<rect width="1920" height="9407" transform="translate(-1568 -2851)" fill="white"/>
<path d="M205.876 668.572L189.171 664.096L193.647 647.391C196.119 638.164 190.645 628.681 181.418 626.209C172.191 623.737 162.709 629.212 160.237 638.438L155.761 655.143L139.055 650.667C129.829 648.195 120.346 653.67 117.874 662.897C115.402 672.123 120.876 681.606 130.103 684.078L146.808 688.554L142.332 705.259C139.86 714.486 145.334 723.968 154.561 726.441C163.788 728.913 173.27 723.438 175.742 714.212L180.219 697.507L196.924 701.983C206.151 704.455 215.633 698.98 218.105 689.753C220.578 680.527 215.103 671.044 205.876 668.572ZM199.162 693.63L178.28 688.035C175.974 687.417 173.603 688.786 172.985 691.092L167.39 711.974C166.154 716.587 161.413 719.324 156.799 718.088C152.185 716.852 149.448 712.111 150.684 707.497L156.28 686.616C156.898 684.309 155.529 681.939 153.222 681.321L132.341 675.725C127.727 674.489 124.99 669.748 126.226 665.135C127.463 660.521 132.203 657.784 136.817 659.02L157.699 664.615C160.005 665.233 162.376 663.864 162.994 661.558L168.589 640.676C169.825 636.063 174.566 633.325 179.18 634.562C183.794 635.798 186.531 640.539 185.295 645.153L179.699 666.034C179.081 668.341 180.45 670.711 182.757 671.329L203.638 676.925C208.252 678.161 210.989 682.902 209.753 687.515C208.517 692.129 203.776 694.866 199.162 693.63Z" fill="#9479FD"/>
<g filter="url(#filter1_f)">
<circle cx="304.445" cy="304.86" r="200" fill="#9479FD"/>
</g>
</g>
<defs>
<filter id="filter1_f" x="0.445312" y="0.859863" width="608" height="608" filterUnits="userSpaceOnUse" color-interpolation-filters="sRGB">
<feFlood flood-opacity="0" result="BackgroundImageFix"/>
<feBlend mode="normal" in="SourceGraphic" in2="BackgroundImageFix" result="shape"/>
<feGaussianBlur stdDeviation="52" result="effect1_foregroundBlur"/>
</filter>
<clipPath id="clip0">
<rect width="1920" height="9407" fill="white" transform="translate(-1568 -2851)"/>
</clipPath>
</defs>
</svg>
