<svg width="47" height="47" viewBox="0 0 47 47" fill="none" xmlns="http://www.w3.org/2000/svg">
<path fill-rule="evenodd" clip-rule="evenodd" d="M19.3133 0.637695H22.0165C22.0165 5.10928 25.6948 8.74721 30.2161 8.74721V11.4504C24.2438 11.4504 19.3133 6.60197 19.3133 0.637695ZM32.9193 3.34087V6.04404H30.2161C27.2527 6.04404 24.7197 3.64939 24.7197 0.637695H27.4228C27.4228 2.10299 28.702 3.34087 30.2161 3.34087H32.9193ZM43.732 10.0491V8.74716C43.732 5.76611 41.3067 3.34082 38.3256 3.34082H35.6225V6.04399H38.3256C39.8162 6.04399 41.0288 7.25663 41.0288 8.74716H33.0188L31.9775 22.3531H24.7197V12.7839L13.907 20.9835V12.7974L0.301025 23.03V46.7718H46.4299L43.732 10.0491ZM22.0165 18.2263V22.3531H16.5746L22.0165 18.2263ZM11.2038 18.2128V22.3531H5.69845L11.2038 18.2128ZM13.907 44.0686H8.41054V33.1658H13.907V44.0686ZM30.3156 44.0686H16.6102V30.4626H5.70737V44.0686H3.0042V25.0563H31.7706L30.3156 44.0686ZM35.523 11.4503H41.1245L41.3231 14.1535H35.3161L35.523 11.4503ZM35.1092 16.8567H41.5217L43.521 44.0686H33.0267L35.1092 16.8567ZM19.3133 30.4627H27.4228V38.5722H19.3133V30.4627ZM22.0165 35.869H24.7197V33.1658H22.0165V35.869Z" fill="white"/>
</svg>
