<svg width="48" height="49" viewBox="0 0 48 49" fill="none" xmlns="http://www.w3.org/2000/svg">
<path d="M41.7456 21.0371L33.9494 18.9481L36.0384 11.1518C37.1921 6.84586 34.6371 2.42048 30.3312 1.2667C26.0252 0.11292 21.5998 2.66792 20.4461 6.97388L18.3571 14.77L10.5608 12.681C6.25485 11.5273 1.82946 14.0823 0.675684 18.3883C-0.478094 22.6943 2.0769 27.1197 6.38286 28.2734L14.179 30.3624L12.09 38.1586C10.9363 42.4646 13.4913 46.89 17.7973 48.0438C22.1032 49.1976 26.5286 46.6426 27.6824 42.3366L29.7714 34.5405L37.5675 36.6294C41.8736 37.7831 46.299 35.2281 47.4528 30.9222C48.6066 26.6162 46.0516 22.1908 41.7456 21.0371ZM38.6121 32.7313L28.8669 30.1201C27.7905 29.8317 26.684 30.4705 26.3956 31.5469L23.7844 41.2921C23.2075 43.4453 20.995 44.7227 18.8418 44.1458C16.6886 43.5688 15.4112 41.3564 15.9881 39.2031L18.5994 29.4579C18.8878 28.3815 18.249 27.2751 17.1726 26.9866L7.42734 24.3754C5.27422 23.7985 3.99676 21.586 4.57371 19.4328C5.15067 17.2796 7.36313 16.0022 9.51634 16.5792L19.2616 19.1904C20.338 19.4788 21.4444 18.84 21.7328 17.7636L24.3441 8.01835C24.921 5.86524 27.1335 4.58778 29.2867 5.16473C31.4399 5.74168 32.7173 7.95414 32.1403 10.1073L29.5291 19.8526C29.2407 20.929 29.8794 22.0354 30.9559 22.3239L40.7011 24.9351C42.8542 25.512 44.1317 27.7245 43.5548 29.8777C42.9778 32.0309 40.7652 33.3083 38.6121 32.7313Z" fill="black"/>
</svg>
