<svg width="149" height="148" viewBox="0 0 149 148" fill="none" xmlns="http://www.w3.org/2000/svg">
<g filter="url(#filter0_f)">
<path d="M112.375 66.4703L95.6703 61.9941L100.147 45.2887C102.619 36.0621 97.1438 26.5796 87.9173 24.1074C78.6907 21.6351 69.2082 27.1098 66.7359 36.3364L62.2598 53.0416L45.5544 48.5654C36.3278 46.0933 26.8453 51.5681 24.373 60.7946C21.9008 70.0212 27.3755 79.5037 36.6021 81.976L53.3073 86.4521L48.8311 103.157C46.359 112.384 51.8337 121.867 61.0603 124.339C70.2869 126.811 79.7694 121.336 82.2416 112.11L86.7178 95.4046L103.423 99.8808C112.65 102.353 122.132 96.8782 124.605 87.6516C127.077 78.425 121.602 68.9425 112.375 66.4703ZM105.661 91.5281L84.7796 85.9329C82.4731 85.3149 80.1024 86.6836 79.4844 88.9901L73.8891 109.872C72.6529 114.485 67.9121 117.223 63.2984 115.986C58.6846 114.75 55.9475 110.009 57.1838 105.396L62.779 84.5139C63.397 82.2075 62.0283 79.8367 59.7218 79.2187L38.8401 73.6235C34.2265 72.3873 31.4893 67.6465 32.7255 63.0327C33.9618 58.4189 38.7025 55.6818 43.3163 56.9181L64.1979 62.5133C66.5044 63.1313 68.8752 61.7626 69.4932 59.4561L75.0884 38.5745C76.3246 33.9609 81.0654 31.2236 85.6792 32.4599C90.293 33.6961 93.0301 38.4369 91.7938 43.0506L86.1986 63.9323C85.5806 66.2388 86.9493 68.6095 89.2558 69.2275L110.137 74.8228C114.751 76.059 117.488 80.7998 116.252 85.4135C115.016 90.0273 110.275 92.7643 105.661 91.5281Z" fill="#9479FD"/>
</g>
<defs>
<filter id="filter0_f" x="0.94458" y="0.678894" width="147.088" height="147.088" filterUnits="userSpaceOnUse" color-interpolation-filters="sRGB">
<feFlood flood-opacity="0" result="BackgroundImageFix"/>
<feBlend mode="normal" in="SourceGraphic" in2="BackgroundImageFix" result="shape"/>
<feGaussianBlur stdDeviation="5" result="effect1_foregroundBlur"/>
</filter>
</defs>
</svg>
