<svg width="52" height="52" viewBox="0 0 52 52" fill="none" xmlns="http://www.w3.org/2000/svg">
<path fill-rule="evenodd" clip-rule="evenodd" d="M48.9747 15.8143V41.3129H51.9745V51.8124H0.977173V41.3129H3.97702V15.8143H13.061C12.5962 11.6363 14.101 7.70578 16.9932 4.81782C22.4586 -0.639294 30.8137 -0.366708 35.9539 4.70193C38.996 7.70178 40.3393 11.7827 39.8901 15.8143H48.9747ZM36.9753 14.3142C36.9753 8.44874 32.1829 3.73018 26.3248 3.81588C20.8014 3.89327 16.063 8.62463 15.9777 14.1476C15.9165 18.1192 18.0736 21.5826 21.2273 23.4073L21.9761 23.8405V27.8136H24.9759V18.8141C24.9759 17.16 23.6302 15.8143 21.9761 15.8143V12.8144C23.7661 12.8144 25.3756 13.6025 26.4759 14.8497C27.5761 13.6025 29.1856 12.8144 30.9756 12.8144V15.8143C29.3215 15.8143 27.9758 17.16 27.9758 18.8141V27.8136H30.9756V23.8407L31.7244 23.4076C34.873 21.5859 36.9753 18.1663 36.9753 14.3142ZM29.4757 30.8135H23.476V32.3134C23.476 33.9675 24.8217 35.3132 26.4759 35.3132C28.13 35.3132 29.4757 33.9675 29.4757 32.3134V30.8135ZM13.7476 18.8141H6.97686V41.3129H45.9748V18.8141H39.2035C38.194 21.6231 36.3354 23.9553 33.9755 25.5372V30.8135H32.4755V32.3134C32.4755 35.6216 29.7841 38.3131 26.4759 38.3131C23.1676 38.3131 20.4762 35.6216 20.4762 32.3134V30.8135H18.9762V25.5369C16.4741 23.8584 14.6673 21.4198 13.7476 18.8141ZM3.97702 44.3128V48.8126H48.9747V44.3128H3.97702ZM5.47644 6.81472H9.97621V9.81457H5.47644V6.81472ZM42.9745 6.81472H47.4742V9.81457H42.9745V6.81472Z" fill="white"/>
</svg>
