<svg width="49" height="49" viewBox="0 0 49 49" fill="none" xmlns="http://www.w3.org/2000/svg">
<path fill-rule="evenodd" clip-rule="evenodd" d="M48.6967 6.33696V43.0727H30.323V45.9112H35.9823V48.7262H13.3685V45.9112H19.0277V43.0727H0.654053V6.33696H6.30751V0.683594H43.0432V6.33696H48.6967ZM20.4294 6.33696H40.2282V3.49859H20.4294V6.33696ZM40.2282 9.15195H9.12251V28.9509H40.2282V9.15195ZM14.776 3.49859V6.33696H17.6144V3.49859H14.776ZM11.961 3.49859H9.12251V6.33696H11.961V3.49859ZM6.30751 31.7659V9.15195H3.46905V34.6042H45.8817V9.15195H43.0432V31.7659H6.30751ZM45.8817 37.4191H3.46905V40.2577H45.8817V37.4191ZM21.8428 45.9112H27.508V43.0727H21.8428V45.9112ZM25.8547 13.1926L20.9387 23.7218L23.4892 24.9126L28.4051 14.3834L25.8547 13.1926ZM18.1994 13.4505L12.7052 19.0515L18.1994 24.6526L20.2089 22.6813L16.6483 19.0515L20.2089 15.4217L18.1994 13.4505ZM32.6917 19.0515L29.131 15.4217L31.1405 13.4505L36.6348 19.0515L31.1405 24.6526L29.131 22.6813L32.6917 19.0515Z" fill="white"/>
</svg>
