<svg width="50" height="51" viewBox="0 0 50 51" fill="none" xmlns="http://www.w3.org/2000/svg">
<path d="M44.8029 30.0933V10.469C46.8993 9.83828 48.4311 7.89102 48.4311 5.59189C48.4311 2.78369 46.1464 0.499023 43.3382 0.499023C42.1967 0.499023 41.1418 0.876563 40.2915 1.51318L24.3823 12.5433V20.9916L21.0015 15.5381H12.2977V24.5838H0.778137V37.5354H15.5096V40.3133H5.87091C3.06271 40.3133 0.778137 42.5979 0.778137 45.4062C0.778137 48.2144 3.06271 50.499 5.87091 50.499H28.1382L28.1385 50.4975C30.9186 50.4646 33.1704 48.1939 33.1704 45.4062C33.1704 42.5979 30.8858 40.3133 28.0776 40.3133H18.4389V37.5354H33.1704V17.0111L41.8734 10.9243V30.0933L36.7235 34.3327V39.9639L39.3661 42.6063L41.4375 40.535L39.653 38.7504V35.7155L43.3382 32.6818L47.0233 35.7155V38.7504L45.0315 40.7424L47.1028 42.8138L49.9528 39.9639V34.3327L44.8029 30.0933ZM12.2977 34.606H3.70753V27.5132H12.2978V34.606H12.2977ZM23.4686 43.2428C23.1589 43.8999 22.9849 44.6329 22.9849 45.4062C22.9849 46.1794 23.1589 46.9125 23.4686 47.5696H10.48C10.7897 46.9125 10.9637 46.1794 10.9637 45.4062C10.9637 44.6329 10.7897 43.8998 10.48 43.2428H23.4686ZM3.70753 45.4062C3.70753 44.2133 4.67804 43.2428 5.87091 43.2428C7.06378 43.2428 8.03439 44.2133 8.03439 45.4062C8.03439 46.5991 7.06388 47.5696 5.87091 47.5696C4.67794 47.5696 3.70753 46.5991 3.70753 45.4062ZM30.2411 45.4062C30.2411 46.5991 29.2706 47.5696 28.0776 47.5696C26.8848 47.5696 25.9143 46.5991 25.9143 45.4062C25.9143 44.2133 26.8847 43.2428 28.0776 43.2428C29.2705 43.2428 30.2411 44.2133 30.2411 45.4062ZM43.3382 3.42842C44.5312 3.42842 45.5017 4.39893 45.5017 5.59189C45.5017 6.78477 44.5312 7.75527 43.3382 7.75527C42.1452 7.75527 41.1747 6.78477 41.1747 5.59189C41.1747 4.39893 42.1452 3.42842 43.3382 3.42842ZM15.2271 18.4675H19.3708L23.1626 24.5838H15.2271V18.4675ZM15.2271 27.5132H25.1873L30.241 32.567V34.606H15.2271V27.5132ZM27.3117 25.4948V14.0769L30.2411 12.0459V28.4242L27.3117 25.4948ZM33.1705 10.0149L38.3184 6.4459C38.4818 7.40947 38.9162 8.28164 39.541 8.98096L33.1705 13.4364V10.0149Z" fill="white"/>
</svg>
