<svg width="52" height="52" viewBox="0 0 52 52" fill="none" xmlns="http://www.w3.org/2000/svg">
<path d="M48.8772 12.7656H35.814C34.6856 10.3972 32.693 8.51705 30.246 7.53574L29.6234 3.80078H32.342V0.8125H20.3889V3.80078H23.1076L22.485 7.53574C20.0379 8.51705 18.0454 10.3972 16.917 12.7656H3.85376V9.77734H0.865479V18.4111L16.1773 22.2861C12.2766 25.3872 9.92993 30.1747 9.92993 35.2773C9.92993 44.3947 17.303 51.8125 26.3655 51.8125C35.428 51.8125 42.801 44.3947 42.801 35.2773C42.801 30.1206 40.4053 25.2849 36.4299 22.1873L51.8655 18.4216C51.8655 17.0757 51.8655 11.1061 51.8655 9.77734H48.8772V12.7656ZM18.8948 17.248C18.8948 16.7348 18.9469 16.2337 19.0461 15.7492C20.9784 17.6375 23.6025 18.7422 26.3655 18.7422C29.1285 18.7422 31.7526 17.6375 33.6848 15.7492C33.784 16.2337 33.8362 16.7348 33.8362 17.248C33.8362 21.3674 30.4849 24.7188 26.3655 24.7188C22.2461 24.7188 18.8948 21.3674 18.8948 17.248ZM26.1371 3.80078H26.5939L27.0962 6.81513C26.8546 6.7984 26.6114 6.78906 26.3655 6.78906C26.1196 6.78906 25.8764 6.7984 25.6348 6.81513L26.1371 3.80078ZM26.3655 9.77734C28.8051 9.77734 30.9751 10.9532 32.3397 12.7676C30.9378 14.6282 28.7223 15.7539 26.3655 15.7539C24.0087 15.7539 21.7932 14.6282 20.3913 12.7676C21.7558 10.9532 23.9258 9.77734 26.3655 9.77734ZM3.85376 15.7527H16.0135C15.9435 16.2411 15.9065 16.7407 15.9065 17.248C15.9065 17.9083 15.9688 18.5543 16.0863 19.1807L3.85376 16.0839V15.7527ZM12.9182 35.2773C12.9182 33.6922 13.1953 32.1447 13.7108 30.6953H19.7699L20.8753 31.8004L15.9065 34.3676V36.7715H13.0003C12.9466 36.2808 12.9182 35.7824 12.9182 35.2773ZM30.8479 48.0495V42.748H27.2888L25.7947 39.7598H30.8479V36.7715H32.9755L35.9638 33.6836H39.7178C39.7793 34.2093 39.8127 34.7408 39.8127 35.2773C39.8127 41.1644 36.0653 46.1853 30.8479 48.0495ZM39.0201 30.6953H34.6969L31.7086 33.7832H27.8596V36.7715H20.9597L25.4421 45.7363H27.8596V48.7402C27.369 48.795 26.8705 48.8242 26.3655 48.8242C20.5095 48.8242 15.5166 45.0332 13.6758 39.7598H18.8948V36.1871L25.8791 32.5786L21.008 27.707H15.2057C16.1022 26.3596 17.2392 25.1728 18.5745 24.218C20.4912 26.358 23.2737 27.707 26.3655 27.707C29.4573 27.707 32.2397 26.358 34.1564 24.218C36.4116 25.83 38.0988 28.1055 39.0201 30.6953ZM48.8772 16.0745L36.668 19.0531C36.7708 18.4667 36.8245 17.8636 36.8245 17.248C36.8245 16.7407 36.7875 16.2422 36.7175 15.7539H48.8772V16.0745Z" fill="white"/>
</svg>
