<svg width="69" height="68" viewBox="0 0 69 68" fill="none" xmlns="http://www.w3.org/2000/svg">
<path fill-rule="evenodd" clip-rule="evenodd" d="M4.76945 67.3445C3.74966 67.3445 2.77163 66.9394 2.05053 66.2183C1.32943 65.4972 0.924316 64.5192 0.924316 63.4994V60.4906C0.924316 60.2356 1.02559 59.9911 1.20587 59.8108C1.38615 59.6306 1.63065 59.5293 1.8856 59.5293C2.14055 59.5293 2.38505 59.6306 2.56533 59.8108C2.7456 59.9911 2.84688 60.2356 2.84688 60.4906V63.4994C2.84688 64.0093 3.04944 64.4983 3.40999 64.8588C3.77054 65.2194 4.25955 65.4219 4.76945 65.4219H33.608V53.8081C33.5908 53.7374 33.5816 53.6648 33.5808 53.5917C33.5794 53.4622 33.6042 53.3337 33.6536 53.214C33.7031 53.0943 33.7762 52.9859 33.8686 52.8952C33.961 52.8044 34.0708 52.7333 34.1914 52.6861C34.312 52.6388 34.4409 52.6164 34.5703 52.6202C34.6998 52.6241 34.8271 52.654 34.9447 52.7082C35.0501 52.7568 35.1457 52.8241 35.227 52.9066C35.2344 52.9136 35.2418 52.9207 35.249 52.9279C35.2635 52.9424 35.2775 52.9574 35.291 52.9727C35.7285 53.4108 36.2475 53.7594 36.819 53.9986C37.4064 54.2445 38.0372 54.3699 38.6739 54.3673C39.9487 54.3673 41.1712 53.8609 42.0726 52.9595C42.974 52.0581 43.4804 50.8356 43.4804 49.5609C43.4804 48.2861 42.974 47.0636 42.0726 46.1622C41.1712 45.2608 39.9487 44.7544 38.6739 44.7544C38.037 44.7521 37.4062 44.8778 36.8188 45.124C36.2372 45.3678 35.7099 45.7248 35.2677 46.1743L35.2522 46.1904C35.1657 46.2852 35.0612 46.3617 34.9447 46.4154C34.8271 46.4697 34.6998 46.4996 34.5703 46.5034C34.4409 46.5072 34.312 46.4848 34.1914 46.4376C34.0708 46.3903 33.961 46.3192 33.8686 46.2285C33.7762 46.1377 33.7031 46.0293 33.6536 45.9096C33.6042 45.7899 33.5794 45.6614 33.5808 45.5319C33.5816 45.4588 33.5908 45.3862 33.608 45.3155V34.661H24.6603C24.7543 34.8381 24.8404 35.0197 24.9182 35.2053C25.2635 36.0281 25.44 36.912 25.437 37.8043C25.435 39.5884 24.7254 41.2987 23.4639 42.5602C22.2024 43.8217 20.4921 44.5313 18.7081 44.5333C16.924 44.5313 15.2137 43.8217 13.9522 42.5602C12.6907 41.2987 11.9811 39.5884 11.9791 37.8043C11.9759 36.9121 12.152 36.0284 12.497 35.2055C12.5748 35.0199 12.6609 34.8382 12.7548 34.661H2.84688V39.4673C2.84688 39.7222 2.7456 39.9667 2.56533 40.147C2.38505 40.3273 2.14055 40.4286 1.8856 40.4286C1.63065 40.4286 1.38615 40.3273 1.20587 40.147C1.02559 39.9667 0.924316 39.7222 0.924316 39.4673V33.6997V3.89982C0.924316 2.88003 1.32943 1.902 2.05053 1.1809C2.77163 0.459799 3.74966 0.0546875 4.76945 0.0546875H34.5692H64.369C65.3888 0.0546875 66.3668 0.459799 67.0879 1.1809C67.809 1.902 68.2141 2.88003 68.2141 3.89982V33.6959L68.2141 33.6997L68.2141 33.7036V63.4994C68.2141 64.5192 67.809 65.4972 67.0879 66.2183C66.3668 66.9394 65.3888 67.3445 64.369 67.3445H4.76945ZM35.5305 65.4219V55.5141C35.7078 55.608 35.8894 55.6941 36.0751 55.7719C36.8979 56.1169 37.7817 56.293 38.6739 56.2898C40.4586 56.2898 42.1701 55.5809 43.432 54.319C44.694 53.057 45.4029 51.3455 45.4029 49.5609C45.4029 47.7762 44.694 46.0647 43.432 44.8027C42.1701 43.5408 40.4586 42.8319 38.6739 42.8319C37.7816 42.829 36.8977 43.0054 36.0749 43.3507C35.8893 43.4285 35.7077 43.5146 35.5305 43.6086V34.661H46.3834C46.6383 34.661 46.8829 34.5597 47.0631 34.3795C47.2434 34.1992 47.3447 33.9547 47.3447 33.6997C47.3447 33.4448 47.2434 33.2003 47.0631 33.02L47.0579 33.0148L47.0573 33.0141C46.6015 32.5693 46.2397 32.0374 45.9935 31.45C45.7473 30.8626 45.6217 30.2318 45.624 29.5949C45.624 28.3201 46.1304 27.0976 47.0318 26.1962C47.9331 25.2948 49.1557 24.7884 50.4304 24.7884C51.7052 24.7884 52.9277 25.2948 53.8291 26.1962C54.7304 27.0976 55.2368 28.3201 55.2368 29.5949C55.2393 30.2317 55.1138 30.8625 54.8677 31.4499C54.6261 32.0267 54.2731 32.5501 53.829 32.9901L53.8164 33.0018C53.8101 33.0078 53.8038 33.0138 53.7977 33.02C53.6174 33.2003 53.5161 33.4448 53.5161 33.6997C53.5161 33.9547 53.6174 34.1992 53.7977 34.3795C53.978 34.5597 54.2225 34.661 54.4774 34.661H66.2916V63.4994C66.2916 64.0093 66.089 64.4983 65.7285 64.8588C65.3679 65.2194 64.8789 65.4219 64.369 65.4219H35.5305ZM15.2971 34.4205C15.312 34.4073 15.3266 34.3936 15.3408 34.3795C15.5211 34.1992 15.6223 33.9547 15.6223 33.6997C15.6223 33.4448 15.5211 33.2003 15.3408 33.02C15.1605 32.8397 14.916 32.7384 14.6611 32.7384H2.84688V3.89982C2.84688 3.38992 3.04944 2.90091 3.40999 2.54036C3.77054 2.17981 4.25955 1.97725 4.76945 1.97725H33.608V11.8852C33.4307 11.7913 33.249 11.7052 33.0634 11.6274C32.2405 11.2824 31.3568 11.1063 30.4645 11.1094C28.6799 11.1094 26.9684 11.8184 25.7064 13.0803C24.4445 14.3422 23.7356 16.0538 23.7356 17.8384C23.7356 19.6231 24.4445 21.3346 25.7064 22.5965C26.9684 23.8585 28.6799 24.5674 30.4645 24.5674C31.3569 24.5703 32.2407 24.3939 33.0636 24.0486C33.2492 23.9707 33.4308 23.8846 33.608 23.7906V32.7384H22.9537C22.8829 32.7212 22.8102 32.712 22.737 32.7112C22.6075 32.7098 22.479 32.7346 22.3593 32.784C22.2396 32.8335 22.1312 32.9066 22.0404 32.999C21.9497 33.0914 21.8786 33.2012 21.8313 33.3218C21.7841 33.4424 21.7617 33.5713 21.7655 33.7007C21.7693 33.8302 21.7993 33.9575 21.8535 34.0751C21.9072 34.1916 21.9837 34.2961 22.0784 34.3825L22.0947 34.3983C22.5442 34.8405 22.9012 35.3677 23.1449 35.9492C23.3911 36.5366 23.5168 37.1675 23.5145 37.8043C23.5145 39.0791 23.0081 40.3016 22.1067 41.203C21.2053 42.1044 19.9828 42.6108 18.7081 42.6108C17.4333 42.6108 16.2108 42.1044 15.3094 41.203C14.408 40.3016 13.9016 39.0791 13.9016 37.8043C13.899 37.1676 14.0244 36.5368 14.2703 35.9494C14.5097 35.3776 14.8585 34.8582 15.2971 34.4205ZM33.8843 21.2111C33.886 21.2094 33.8878 21.2076 33.8895 21.2059C34.0698 21.0256 34.3143 20.9243 34.5692 20.9243C34.8242 20.9243 35.0687 21.0256 35.249 21.2059C35.4293 21.3861 35.5305 21.6306 35.5305 21.8856V32.7384H44.4783C44.3843 32.5612 44.2981 32.3796 44.2202 32.1939C43.8749 31.3711 43.6985 30.4872 43.7014 29.5949C43.7014 27.8102 44.4104 26.0987 45.6723 24.8368C46.9342 23.5748 48.6458 22.8659 50.4304 22.8659C52.2151 22.8659 53.9266 23.5748 55.1885 24.8368C56.4505 26.0987 57.1594 27.8102 57.1594 29.5949C57.1626 30.4871 56.9864 31.3709 56.6415 32.1937C56.5636 32.3794 56.4775 32.5612 56.3835 32.7384H66.2916V3.89982C66.2916 3.38992 66.089 2.90091 65.7285 2.54036C65.3679 2.17981 64.8789 1.97725 64.369 1.97725H35.5305V13.7914C35.5305 14.0464 35.4293 14.2909 35.249 14.4712C35.0687 14.6514 34.8242 14.7527 34.5692 14.7527C34.3143 14.7527 34.0698 14.6514 33.8895 14.4712C33.8756 14.4573 33.8622 14.443 33.8493 14.4284C33.4114 13.9894 32.8917 13.6402 32.3194 13.4007C31.7321 13.1548 31.1013 13.0294 30.4645 13.032C29.1898 13.032 27.9673 13.5384 27.0659 14.4398C26.1645 15.3412 25.6581 16.5637 25.6581 17.8384C25.6581 19.1132 26.1645 20.3357 27.0659 21.2371C27.9673 22.1384 29.1898 22.6448 30.4645 22.6448C31.1014 22.6472 31.7323 22.5215 32.3197 22.2753C32.907 22.0291 33.439 21.6673 33.8838 21.2116C33.884 21.2114 33.8841 21.2113 33.8843 21.2111ZM1.8856 48.9937C1.63065 48.9937 1.38615 48.8924 1.20587 48.7121C1.02559 48.5319 0.924316 48.2874 0.924316 48.0324V46.1964C0.924316 45.9414 1.02559 45.6969 1.20587 45.5166C1.38615 45.3363 1.63065 45.2351 1.8856 45.2351C2.14055 45.2351 2.38505 45.3363 2.56533 45.5166C2.74561 45.6969 2.84688 45.9414 2.84688 46.1964V48.0324C2.84688 48.2874 2.74561 48.5319 2.56533 48.7121C2.38505 48.8924 2.14055 48.9937 1.8856 48.9937ZM1.20587 56.3639C1.38615 56.5442 1.63065 56.6455 1.8856 56.6455C2.14055 56.6455 2.38505 56.5442 2.56533 56.3639C2.74561 56.1837 2.84688 55.9391 2.84688 55.6842V53.8001C2.84688 53.5451 2.74561 53.3006 2.56533 53.1204C2.38505 52.9401 2.14055 52.8388 1.8856 52.8388C1.63065 52.8388 1.38615 52.9401 1.20587 53.1204C1.02559 53.3006 0.924316 53.5451 0.924316 53.8001V55.6842C0.924316 55.9391 1.02559 56.1837 1.20587 56.3639Z" fill="black"/>
</svg>
