<svg width="75" height="70" viewBox="0 0 75 70" fill="none" xmlns="http://www.w3.org/2000/svg">
<path fill-rule="evenodd" clip-rule="evenodd" d="M23.1785 0.00488281H25.318V4.00248H23.1785V0.00488281ZM65.2583 69.6874C65.2638 69.6874 65.2692 69.6875 65.2747 69.6874C65.463 69.688 65.6481 69.6388 65.8114 69.5449C65.9746 69.451 66.1101 69.3157 66.2043 69.1526L73.9353 55.5948C74.028 55.4318 74.0764 55.2474 74.0754 55.0599V9.1833C74.0737 7.53319 73.4174 5.95115 72.2506 4.78435C71.0838 3.61754 69.5018 2.96129 67.8517 2.95959H62.6988C61.0487 2.96129 59.4666 3.61754 58.2998 4.78435C57.133 5.95115 56.4768 7.53319 56.4751 9.1833V55.0546C56.4741 55.242 56.5224 55.4265 56.6152 55.5894L63.4305 67.5479H28.3175C27.4664 67.5479 26.6501 67.2098 26.0483 66.6079C25.4464 66.0061 25.1083 65.1898 25.1083 64.3387V58.5118H27.7217C28.2173 58.5115 28.6926 58.3146 29.0432 57.9642C29.3938 57.6138 29.591 57.1386 29.5916 56.643V52.2421H29.8451C30.1288 52.2421 30.4009 52.1294 30.6015 51.9288C30.8021 51.7282 30.9148 51.4561 30.9148 51.1724C30.9144 48.8377 31.4138 46.5299 32.3795 44.4043C33.3453 42.2787 34.755 40.3845 36.5138 38.849C38.7439 36.9183 40.4808 34.4829 41.5801 31.7456C42.6793 29.0083 43.1092 26.048 42.8338 23.1111C42.5602 20.078 41.5485 17.158 39.8868 14.6058C38.2252 12.0537 35.9641 9.94698 33.301 8.46964C30.638 6.9923 27.6538 6.18919 24.6089 6.13042C21.5641 6.07165 18.5511 6.75899 15.833 8.13246C13.1149 9.50594 10.7742 11.5238 9.01534 14.0099C7.25644 16.496 6.13275 19.3749 5.74233 22.3952C5.35192 25.4155 5.70665 28.4854 6.77557 31.3371C7.84449 34.1887 9.5951 36.7354 11.8746 38.7549C13.6493 40.3039 15.0755 42.2115 16.0592 44.3519C17.0429 46.4923 17.5618 48.8169 17.5817 51.1724C17.5817 51.4561 17.6944 51.7282 17.895 51.9288C18.0956 52.1294 18.3677 52.2421 18.6514 52.2421H18.906V56.643C18.9066 57.1384 19.1036 57.6134 19.454 57.9638C19.8043 58.3141 20.2793 58.5112 20.7748 58.5118H22.9688V64.3387C22.9705 65.7567 23.5346 67.1162 24.5373 68.1189C25.54 69.1216 26.8995 69.6857 28.3175 69.6874H65.2583ZM66.3444 50.8448C68.1116 50.9651 70.0103 51.5358 71.9359 52.84V17.0971H66.3444V50.8448ZM58.6145 52.9677C59.9345 52.1508 61.8957 51.2005 64.2049 50.9093V17.0971H58.6145V52.9677ZM58.6145 14.9576H71.9359V9.1833C71.9348 8.10044 71.5041 7.06225 70.7384 6.29655C69.9727 5.53085 68.9345 5.10019 67.8517 5.09905H62.6988C61.6159 5.10019 60.5777 5.53085 59.812 6.29655C59.0463 7.06225 58.6157 8.10044 58.6145 9.1833V14.9576ZM71.6426 55.2909L65.2758 66.4579L58.9221 55.3158C60.7526 53.9506 66.1116 50.7732 71.6426 55.2909ZM19.9654 50.1027H19.6901V50.1005C19.3583 45.108 17.0578 40.4515 13.2942 37.1546C10.781 34.9281 9.00593 31.9887 8.20552 28.7279C7.4051 25.4672 7.61733 22.0399 8.81393 18.9029C10.0105 15.7658 12.1347 13.0678 14.9033 11.1684C17.672 9.26903 20.9537 8.25844 24.3113 8.27128C27.6688 8.28413 30.9427 9.3198 33.6968 11.2403C36.4508 13.1608 38.5543 15.875 39.7268 19.0211C40.8994 22.1673 41.0854 25.596 40.2601 28.8506C39.4347 32.1051 37.6372 35.0309 35.1071 37.238C33.2543 38.8557 31.7427 40.8267 30.6608 43.0356C29.5789 45.2446 28.9485 47.6471 28.8064 50.1027H28.5321L28.5218 50.1026H25.318V32.1299C26.1552 31.932 26.9288 31.5049 27.5469 30.8867C28.4219 30.0117 28.9141 28.8254 28.9155 27.588C28.9155 26.6649 28.6418 25.7625 28.1289 24.995C27.6161 24.2275 26.8872 23.6293 26.0343 23.276C25.1815 22.9228 24.2431 22.8304 23.3377 23.0104C22.4324 23.1905 21.6007 23.635 20.948 24.2878C20.2953 24.9405 19.8508 25.7721 19.6707 26.6775C19.4906 27.5828 19.583 28.5213 19.9363 29.3741C20.2895 30.2269 20.8877 30.9558 21.6553 31.4687C22.1217 31.7804 22.638 32.0037 23.1785 32.131V50.1026H19.9757L19.9654 50.1027ZM21.0455 52.2421L21.0444 56.3723H27.451V52.2421H21.0455ZM13.5815 2.57665L11.7287 3.64638L13.727 7.10738L15.5797 6.03764L13.5815 2.57665ZM3.63368 12.5245L4.70341 10.6717L8.1644 12.67L7.09467 14.5228L3.63368 12.5245ZM4.26133 22.1206H0.263733V24.2601H4.26133V22.1206ZM44.2362 22.1206H48.2338V24.2601H44.2362V22.1206ZM43.7904 10.6664L40.3285 12.6652L41.3983 14.518L44.8602 12.5192L43.7904 10.6664ZM32.9182 6.04162L34.917 2.5797L36.7698 3.64944L34.771 7.11135L32.9182 6.04162ZM24.2482 25.0602C23.7483 25.0602 23.2596 25.2085 22.8439 25.4862C22.4282 25.764 22.1042 26.1588 21.9129 26.6207C21.7216 27.0826 21.6715 27.5908 21.769 28.0812C21.8666 28.5715 22.1073 29.0219 22.4608 29.3754C22.8144 29.7289 23.2648 29.9697 23.7551 30.0672C24.2454 30.1648 24.7537 30.1147 25.2156 29.9234C25.6775 29.7321 26.0723 29.4081 26.35 28.9924C26.6278 28.5767 26.776 28.088 26.776 27.588C26.7752 26.9179 26.5086 26.2754 26.0347 25.8015C25.5609 25.3277 24.9184 25.0611 24.2482 25.0602Z" fill="black"/>
</svg>
