<svg width="68" height="68" viewBox="0 0 68 68" fill="none" xmlns="http://www.w3.org/2000/svg">
<path fill-rule="evenodd" clip-rule="evenodd" d="M9.03815 55.4371H9.08033C9.33455 55.437 9.57834 55.336 9.75808 55.1562L31.8737 33.0406C32.0535 32.8608 32.1546 32.617 32.1546 32.3628V1.09222C32.1546 0.959319 32.1269 0.827874 32.0734 0.706233C32.0198 0.584591 31.9416 0.475412 31.8436 0.385627C31.7456 0.295841 31.63 0.227412 31.5042 0.184684C31.3783 0.141955 31.245 0.125861 31.1126 0.137424C24.6168 0.699105 18.4291 3.15613 13.3175 7.2035C13.1216 7.36233 12.9963 7.59193 12.9685 7.84254C12.9408 8.09316 13.0129 8.34461 13.1692 8.54244C13.3256 8.74026 13.5536 8.86852 13.8038 8.89944C14.0541 8.93035 14.3064 8.86143 14.5062 8.7076C19.0452 5.11433 24.4896 2.84663 30.2373 2.15535V31.9659L9.1551 53.0472C4.80468 47.4795 2.44005 40.6174 2.437 33.5515C2.43466 32.287 2.51214 31.0235 2.66899 29.7688C2.70128 29.5165 2.63206 29.2618 2.47655 29.0607C2.32104 28.8595 2.09199 28.7283 1.83978 28.696C1.58756 28.6638 1.33286 28.733 1.13168 28.8885C0.930512 29.044 0.799355 29.273 0.767066 29.5253C0.599853 30.8608 0.517246 32.2056 0.519739 33.5515C0.522787 41.428 3.29282 49.053 8.34601 55.0949C8.43135 55.1968 8.53695 55.2798 8.6561 55.3387C8.77525 55.3977 8.90536 55.4312 9.03815 55.4371ZM2.58887 24.4848C2.72303 24.5529 2.87133 24.5884 3.02176 24.5886C3.22489 24.5888 3.42282 24.5244 3.58702 24.4049C3.75121 24.2853 3.87319 24.1167 3.93534 23.9233C4.31049 22.7319 4.76297 21.5663 5.28989 20.4339C5.39286 20.2042 5.40138 19.9432 5.31359 19.7073C5.22581 19.4714 5.04877 19.2795 4.8207 19.1731C4.59263 19.0666 4.33184 19.0541 4.09462 19.1382C3.85741 19.2224 3.66281 19.3965 3.55285 19.6229C2.99054 20.8298 2.50795 22.0723 2.10819 23.3424C2.06306 23.4859 2.05233 23.638 2.07689 23.7864C2.10144 23.9348 2.16058 24.0754 2.24952 24.1967C2.33847 24.318 2.45472 24.4167 2.58887 24.4848ZM7.25797 15.9801C7.08284 15.9803 6.91099 15.9326 6.76108 15.842C6.61117 15.7515 6.48893 15.6216 6.40762 15.4665C6.32631 15.3114 6.28904 15.137 6.29987 14.9622C6.31069 14.7874 6.36919 14.6189 6.46901 14.475C7.21345 13.3912 8.02711 12.3566 8.9049 11.3777C8.98833 11.2815 9.09009 11.2029 9.20422 11.1465C9.31836 11.0901 9.4426 11.0569 9.56968 11.0491C9.69676 11.0412 9.82413 11.0587 9.94437 11.1006C10.0646 11.1425 10.1753 11.2079 10.27 11.293C10.3647 11.3781 10.4414 11.4813 10.4958 11.5964C10.5502 11.7115 10.5811 11.8363 10.5867 11.9635C10.5923 12.0907 10.5726 12.2178 10.5286 12.3372C10.4846 12.4567 10.4172 12.5662 10.3304 12.6594C9.50798 13.5767 8.74587 14.5463 8.04884 15.5621C7.96093 15.6908 7.84295 15.7961 7.70514 15.869C7.56733 15.9418 7.41384 15.9799 7.25797 15.9801ZM12.5295 59.2774C18.5711 64.3304 26.1958 67.1004 34.0719 67.1037C41.948 67.1004 49.5727 64.3304 55.6143 59.2774C55.7161 59.192 55.7991 59.0864 55.8579 58.9672C55.9168 58.848 55.9502 58.7179 55.956 58.5851C55.9619 58.4523 55.9401 58.3197 55.892 58.1958C55.8439 58.0719 55.7705 57.9594 55.6766 57.8653L34.7496 36.9384C34.5699 36.7587 34.3261 36.6577 34.0719 36.6577C33.8177 36.6577 33.5739 36.7587 33.3941 36.9384L12.4672 57.8653C12.3732 57.9594 12.2999 58.0719 12.2518 58.1958C12.2037 58.3197 12.1818 58.4523 12.1877 58.5851C12.1936 58.7179 12.227 58.848 12.2858 58.9672C12.3447 59.0864 12.4276 59.192 12.5295 59.2774ZM34.0719 65.1863C27.0055 65.1863 20.1425 62.8214 14.5762 58.4683L34.0719 38.9716L53.5676 58.4683C48.0013 62.8214 41.1382 65.1863 34.0719 65.1863ZM59.0634 55.4372C58.8092 55.4371 58.5654 55.3361 58.3856 55.1563L40.3346 37.1052C40.2006 36.9712 40.1093 36.8004 40.0723 36.6144C40.0354 36.4285 40.0543 36.2358 40.1269 36.0607C40.1994 35.8855 40.3223 35.7358 40.4799 35.6305C40.6375 35.5251 40.8228 35.4689 41.0123 35.4689H66.5311C66.6642 35.4684 66.7959 35.4956 66.9178 35.5488C67.0398 35.602 67.1494 35.68 67.2395 35.7778C67.3297 35.8756 67.3985 35.9912 67.4416 36.117C67.4847 36.2429 67.5011 36.3764 67.4898 36.509C66.9105 43.3502 64.2245 49.8436 59.8015 55.0949C59.7161 55.1967 59.6105 55.2795 59.4913 55.3383C59.3722 55.397 59.2421 55.4304 59.1094 55.4362L59.0634 55.4372ZM43.3265 37.3861L58.9886 53.0482C62.5507 48.5243 64.7936 43.1042 65.4699 37.3861H43.3265ZM36.9478 31.6343H66.5273C66.6605 31.6348 66.7923 31.6075 66.9143 31.5543C67.0363 31.501 67.1459 31.4229 67.2361 31.325C67.3263 31.2271 67.3951 31.1114 67.4381 30.9854C67.4811 30.8594 67.4974 30.7258 67.486 30.5932C66.8174 22.7399 63.3939 15.3758 57.8207 9.80265C52.2476 4.22946 44.8835 0.806015 37.0302 0.137437C36.898 0.127003 36.765 0.143638 36.6394 0.186328C36.5138 0.229017 36.3982 0.296864 36.2997 0.385723C36.2018 0.475535 36.1237 0.584718 36.0702 0.706342C36.0167 0.827966 35.9891 0.959377 35.9891 1.09224V30.6756C35.9891 30.9299 36.0901 31.1737 36.2699 31.3535C36.4497 31.5333 36.6935 31.6343 36.9478 31.6343ZM65.468 29.717H37.9064V2.15536C44.9279 2.98755 51.465 6.1589 56.4648 11.1586C61.4645 16.1584 64.6359 22.6954 65.468 29.717Z" fill="black"/>
</svg>
