<svg width="68" height="68" viewBox="0 0 68 68" fill="none" xmlns="http://www.w3.org/2000/svg">
<path fill-rule="evenodd" clip-rule="evenodd" d="M64.1831 67.1038H2.95339C2.19218 67.1038 1.46215 66.8014 0.923897 66.2631C0.385641 65.7249 0.083252 64.9948 0.083252 64.2336V57.3357C0.083252 57.082 0.184048 56.8386 0.363467 56.6592C0.542886 56.4798 0.78623 56.379 1.03997 56.379C1.2937 56.379 1.53705 56.4798 1.71646 56.6592C1.89588 56.8386 1.99668 57.082 1.99668 57.3357V64.2336C1.99668 64.4874 2.09748 64.7307 2.2769 64.9101C2.45631 65.0895 2.69966 65.1903 2.95339 65.1903H64.1831C64.4368 65.1903 64.6802 65.0895 64.8596 64.9101C65.039 64.7307 65.1398 64.4874 65.1398 64.2336V15.4411H1.99668V31.6192C1.99668 31.873 1.89588 32.1163 1.71646 32.2957C1.53705 32.4752 1.2937 32.576 1.03997 32.576C0.78623 32.576 0.542886 32.4752 0.363467 32.2957C0.184048 32.1163 0.083252 31.873 0.083252 31.6192V14.4844V3.00393C0.083252 2.24272 0.385641 1.51269 0.923897 0.974434C1.46215 0.436178 2.19218 0.133789 2.95339 0.133789H64.1831C64.9443 0.133789 65.6743 0.436178 66.2126 0.974434C66.7508 1.51269 67.0532 2.24272 67.0532 3.00393V14.4844V64.2336C67.0532 64.9948 66.7508 65.7249 66.2126 66.2631C65.6743 66.8014 64.9443 67.1038 64.1831 67.1038ZM1.99668 13.5277H65.1398V3.00393C65.1398 2.75019 65.039 2.50685 64.8596 2.32743C64.6802 2.14801 64.4368 2.04722 64.1831 2.04722H2.95339C2.69966 2.04722 2.45631 2.14801 2.2769 2.32743C2.09748 2.50685 1.99668 2.75019 1.99668 3.00393V13.5277ZM1.03997 42.057C0.78623 42.057 0.542886 41.9562 0.363467 41.7768C0.184048 41.5974 0.083252 41.3541 0.083252 41.1003V38.3163C0.083252 38.0625 0.184048 37.8192 0.363467 37.6398C0.542886 37.4604 0.78623 37.3596 1.03997 37.3596C1.2937 37.3596 1.53705 37.4604 1.71647 37.6398C1.89588 37.8192 1.99668 38.0625 1.99668 38.3163V41.1003C1.99668 41.3541 1.89588 41.5974 1.71647 41.7768C1.53705 41.9562 1.2937 42.057 1.03997 42.057ZM0.363467 51.315C0.542886 51.4944 0.78623 51.5952 1.03997 51.5952C1.2937 51.5952 1.53705 51.4944 1.71647 51.315C1.89588 51.1356 1.99668 50.8923 1.99668 50.6385V47.7971C1.99668 47.5433 1.89588 47.3 1.71647 47.1206C1.53705 46.9412 1.2937 46.8404 1.03997 46.8404C0.78623 46.8404 0.542886 46.9412 0.363467 47.1206C0.184048 47.3 0.083252 47.5433 0.083252 47.7971V50.6385C0.083252 50.8923 0.184048 51.1356 0.363467 51.315ZM55.636 10.4216C56.1569 10.7698 56.7695 10.9558 57.3961 10.956C58.2364 10.9555 59.0422 10.6216 59.6365 10.0275C60.2308 9.43336 60.565 8.6277 60.5657 7.7874C60.5657 7.16074 60.3799 6.54815 60.0318 6.02709C59.6837 5.50604 59.1888 5.0999 58.6099 4.86005C58.031 4.62019 57.3939 4.55739 56.7793 4.67957C56.1646 4.80176 55.6 5.10345 55.1569 5.54649C54.7137 5.98954 54.4118 6.55405 54.2895 7.16864C54.1671 7.78323 54.2297 8.42031 54.4694 8.99932C54.7091 9.57833 55.115 10.0733 55.636 10.4216ZM56.699 6.74419C56.9053 6.60615 57.1479 6.53238 57.3961 6.53219C57.7291 6.53219 58.0485 6.6644 58.284 6.89977C58.5196 7.13514 58.6521 7.45441 58.6523 7.7874C58.6523 8.03561 58.5787 8.27825 58.4408 8.48465C58.3029 8.69105 58.107 8.85193 57.8777 8.94697C57.6484 9.042 57.396 9.06691 57.1526 9.01856C56.9091 8.9702 56.6854 8.85075 56.5099 8.6753C56.3343 8.49985 56.2147 8.27628 56.1661 8.03286C56.1176 7.78944 56.1423 7.53709 56.2372 7.30771C56.332 7.07833 56.4927 6.88223 56.699 6.74419ZM47.919 10.956C47.2923 10.956 46.6796 10.7702 46.1586 10.422C45.6375 10.0738 45.2313 9.57897 44.9915 8.99998C44.7517 8.42099 44.6889 7.78388 44.8112 7.16923C44.9335 6.55457 45.2352 5.98997 45.6784 5.54683C46.1215 5.10369 46.6861 4.80191 47.3008 4.67964C47.9154 4.55738 48.5525 4.62013 49.1315 4.85996C49.7105 5.09978 50.2054 5.50592 50.5536 6.027C50.9017 6.54808 51.0876 7.1607 51.0876 7.7874C51.0868 8.62754 50.7527 9.43305 50.1587 10.0271C49.5646 10.6212 48.7591 10.9553 47.919 10.956ZM47.919 6.53219C47.6707 6.53219 47.428 6.6058 47.2216 6.74373C47.0152 6.88165 46.8543 7.07769 46.7593 7.30705C46.6643 7.53641 46.6394 7.78879 46.6879 8.03227C46.7363 8.27576 46.8558 8.49942 47.0314 8.67496C47.2069 8.85051 47.4306 8.97005 47.6741 9.01849C47.9176 9.06692 48.1699 9.04206 48.3993 8.94706C48.6287 8.85205 48.8247 8.69117 48.9626 8.48475C49.1005 8.27833 49.1742 8.03565 49.1742 7.7874C49.1739 7.45457 49.0416 7.13545 48.8062 6.90011C48.5709 6.66477 48.2518 6.53244 47.919 6.53219ZM36.6813 10.422C37.2024 10.7702 37.8151 10.956 38.4417 10.956C39.2818 10.955 40.0872 10.6209 40.6812 10.0268C41.2752 9.43283 41.6094 8.62746 41.6104 7.7874C41.6104 7.1607 41.4245 6.54808 41.0764 6.027C40.7282 5.50592 40.2333 5.09978 39.6543 4.85996C39.0753 4.62013 38.4382 4.55738 37.8236 4.67964C37.2089 4.80191 36.6443 5.10369 36.2012 5.54683C35.758 5.98997 35.4563 6.55457 35.334 7.16923C35.2117 7.78388 35.2745 8.42099 35.5143 8.99998C35.7541 9.57897 36.1603 10.0738 36.6813 10.422ZM37.7444 6.74373C37.9508 6.6058 38.1935 6.53219 38.4417 6.53219C38.7745 6.53269 39.0935 6.6651 39.3288 6.90039C39.564 7.13568 39.6964 7.45465 39.697 7.7874C39.697 8.03565 39.6233 8.27833 39.4854 8.48475C39.3475 8.69117 39.1515 8.85205 38.9221 8.94706C38.6927 9.04206 38.4404 9.06692 38.1969 9.01849C37.9534 8.97005 37.7297 8.85051 37.5542 8.67496C37.3786 8.49942 37.2591 8.27576 37.2107 8.03227C37.1622 7.78879 37.1871 7.53641 37.2821 7.30705C37.3771 7.07769 37.538 6.88165 37.7444 6.74373ZM35.9122 57.8953H31.2243C30.8601 57.8941 30.5089 57.7604 30.236 57.5192C29.9632 57.2781 29.7874 56.9459 29.7414 56.5846L29.4544 54.2962C28.4639 54.0033 27.5067 53.6076 26.5986 53.1156L24.7808 54.5268C24.4924 54.7509 24.1321 54.8619 23.7676 54.839C23.4031 54.8161 23.0595 54.6608 22.8014 54.4024L19.4825 51.0835C19.2247 50.8253 19.0699 50.4818 19.0472 50.1176C19.0244 49.7534 19.1354 49.3934 19.3591 49.1051L20.7712 47.2873C20.2785 46.3794 19.8825 45.4222 19.5897 44.4315L17.2984 44.1426C16.9368 44.0963 16.6045 43.92 16.3634 43.6466C16.1224 43.3731 15.9892 43.0213 15.9886 42.6568V37.9689C15.9907 37.6045 16.1254 37.2534 16.3675 36.981C16.6095 36.7087 16.9425 36.5337 17.3041 36.4889L19.5926 36.2019C19.8853 35.2112 20.2814 34.254 20.7741 33.3461L19.362 31.5283C19.1382 31.24 19.0273 30.88 19.05 30.5158C19.0727 30.1515 19.2275 29.8081 19.4854 29.5498L22.8052 26.23C23.0636 25.9724 23.407 25.8177 23.7712 25.795C24.1353 25.7722 24.4953 25.883 24.7837 26.1066L26.6014 27.5187C27.5094 27.026 28.4666 26.63 29.4572 26.3372L29.7442 24.0478C29.7905 23.6862 29.9668 23.3539 30.2403 23.1128C30.5137 22.8718 30.8655 22.7386 31.23 22.738H35.9179C36.2815 22.7408 36.6317 22.8755 36.9035 23.1171C37.1752 23.3587 37.3499 23.6908 37.3951 24.0516L37.6821 26.3401C38.6728 26.6328 39.63 27.0289 40.5379 27.5216L42.3557 26.1095C42.6441 25.8861 43.004 25.7754 43.3682 25.7982C43.7323 25.8209 44.0757 25.9754 44.3341 26.2329L47.6539 29.5527C47.9118 29.8109 48.0666 30.1544 48.0893 30.5186C48.112 30.8829 48.0011 31.2429 47.7773 31.5312L46.3652 33.3489C46.858 34.2569 47.254 35.2141 47.5468 36.2047L49.8362 36.4917C50.1978 36.538 50.5301 36.7143 50.7711 36.9878C51.0122 37.2612 51.1454 37.613 51.1459 37.9775V42.6654C51.1433 43.0283 51.0093 43.3779 50.7687 43.6495C50.528 43.9211 50.1971 44.0963 49.8372 44.1426L47.5487 44.4296C47.2559 45.4203 46.8599 46.3774 46.3671 47.2854L47.7793 49.1031C48.003 49.3914 48.1139 49.7515 48.0912 50.1157C48.0685 50.4799 47.9137 50.8234 47.6558 51.0816L44.336 54.4014C44.0781 54.6594 43.7349 54.8143 43.3708 54.8372C43.0067 54.8601 42.6468 54.7494 42.3585 54.5258L40.5408 53.1137C39.6326 53.6057 38.6755 54.0014 37.685 54.2943L37.3951 56.5856C37.3489 56.9467 37.173 57.2786 36.9002 57.5196C36.6273 57.7606 36.2762 57.8941 35.9122 57.8953ZM31.5907 55.9819H35.5458L35.8701 53.4208C35.8943 53.2287 35.9763 53.0486 36.1051 52.9041C36.2338 52.7596 36.4034 52.6575 36.5914 52.6114C37.8378 52.3024 39.031 51.8087 40.1313 51.1467C40.2968 51.0476 40.4885 51.0009 40.6811 51.0126C40.8737 51.0244 41.0582 51.0942 41.2105 51.2127L43.2387 52.7913L46.04 49.99L44.4614 47.9618C44.3428 47.8095 44.2731 47.625 44.2613 47.4324C44.2495 47.2398 44.2963 47.0482 44.3954 46.8826C45.0571 45.7822 45.5508 44.5891 45.8601 43.3428C45.9062 43.1548 46.0082 42.9852 46.1527 42.8564C46.2972 42.7276 46.4774 42.6456 46.6695 42.6214L49.2306 42.2971V38.3382L46.6752 38.0139C46.4832 37.9896 46.303 37.9077 46.1585 37.7789C46.014 37.6501 45.9119 37.4805 45.8658 37.2925C45.5566 36.0462 45.0629 34.8531 44.4011 33.7527C44.302 33.5871 44.2553 33.3955 44.267 33.2029C44.2788 33.0103 44.3486 32.8257 44.4671 32.6735L46.0457 30.6453L43.2425 27.8402L41.2143 29.4188C41.062 29.5373 40.8775 29.607 40.6849 29.6188C40.4923 29.6306 40.3007 29.5839 40.1351 29.4848C39.0347 28.823 37.8416 28.3293 36.5953 28.02C36.4073 27.9739 36.2377 27.8719 36.1089 27.7274C35.9801 27.5829 35.8982 27.4027 35.8739 27.2107L35.5496 24.6495H31.5907L31.2664 27.2087C31.2421 27.4008 31.1602 27.581 31.0314 27.7255C30.9026 27.87 30.733 27.972 30.545 28.0181C29.2987 28.3274 28.1056 28.8211 27.0052 29.4829C26.8396 29.582 26.648 29.6287 26.4554 29.6169C26.2628 29.6051 26.0782 29.5354 25.926 29.4168L23.8978 27.8383L21.0927 30.6414L22.6713 32.6697C22.7898 32.8219 22.8596 33.0064 22.8713 33.199C22.8831 33.3916 22.8364 33.5833 22.7373 33.7488C22.0755 34.8493 21.5818 36.0424 21.2725 37.2887C21.2265 37.4767 21.1244 37.6463 20.9799 37.7751C20.8354 37.9039 20.6552 37.9858 20.4632 38.01L17.902 38.3344V42.2894L20.4632 42.6138C20.6552 42.638 20.8354 42.7199 20.9799 42.8487C21.1244 42.9775 21.2265 43.1471 21.2725 43.3351C21.5818 44.5814 22.0755 45.7745 22.7373 46.875C22.8364 47.0405 22.8831 47.2322 22.8713 47.4248C22.8596 47.6174 22.7898 47.8019 22.6713 47.9541L21.0927 49.9824L23.8939 52.7836L25.9222 51.205C26.0744 51.0865 26.259 51.0168 26.4515 51.005C26.6441 50.9932 26.8358 51.0399 27.0014 51.139C28.1017 51.801 29.2948 52.2947 30.5412 52.6038C30.7292 52.6499 30.8988 52.7519 31.0276 52.8964C31.1564 53.0409 31.2383 53.2211 31.2626 53.4131L31.5907 55.9819ZM28.1432 48.4494C29.7586 49.4896 31.6472 50.0252 33.5682 49.988C36.108 49.9605 38.5331 48.9267 40.3116 47.1134C42.0901 45.3001 43.0767 42.8554 43.055 40.3156C43.055 38.3942 42.4829 36.5164 41.4116 34.9214C40.3403 33.3264 38.8183 32.0865 37.0396 31.3598C35.2609 30.6332 33.3062 30.4526 31.4245 30.8411C29.5428 31.2296 27.8194 32.1696 26.474 33.5414C25.1286 34.9131 24.2221 36.6544 23.8701 38.5432C23.5182 40.4321 23.7366 42.383 24.4976 44.1472C25.2586 45.9115 26.5277 47.4092 28.1432 48.4494ZM29.2064 33.7726C30.5072 32.9427 32.0258 32.5194 33.5682 32.5567C35.6006 32.5839 37.5392 33.416 38.9589 34.8705C40.3786 36.3251 41.1635 38.2832 41.1416 40.3156C41.1415 41.8586 40.6815 43.3664 39.8204 44.6467C38.9593 45.927 37.7361 46.9215 36.3071 47.5033C34.878 48.0851 33.308 48.2277 31.7975 47.9129C30.287 47.5982 28.9047 46.8403 27.8269 45.7362C26.7492 44.6321 26.025 43.2317 25.747 41.7141C25.4689 40.1964 25.6494 38.6303 26.2656 37.2158C26.8818 35.8013 27.9057 34.6025 29.2064 33.7726Z" fill="black"/>
</svg>
