<svg width="12" height="11" viewBox="0 0 12 11" fill="none" xmlns="http://www.w3.org/2000/svg">
<path d="M8.20137 7.05111C7.9641 6.91564 7.71808 6.87284 7.50891 6.9309C7.35185 6.97444 7.22381 7.07382 7.13765 7.2186C6.94765 7.44582 6.71205 7.71101 6.65529 7.75213C6.21406 8.05063 5.86402 8.01527 5.48383 7.63508L3.34634 5.4976C2.96578 5.11703 2.93079 4.76662 3.22892 4.32669C3.2706 4.269 3.53579 4.03359 3.76282 3.84377C3.9076 3.75742 4.00698 3.62958 4.05052 3.47233C4.1084 3.26334 4.0656 3.01751 3.929 2.77801C3.89681 2.72292 3.13084 1.4251 2.42443 1.0516C2.06545 0.861973 1.63259 0.926921 1.34582 1.21388L0.8737 1.686C-0.503588 3.06348 -0.248638 4.77443 1.61101 6.63389L4.34753 9.3706C5.19222 10.2155 6.01066 10.7339 6.77942 10.9117C6.98338 10.9587 7.18324 10.9824 7.37939 10.9824C8.0711 10.9824 8.7135 10.6896 9.29542 10.1077L9.76754 9.6356C10.0543 9.34883 10.1196 8.91541 9.92982 8.55699C9.55614 7.85076 8.2585 7.08443 8.20137 7.05111ZM9.50441 9.37228L9.03228 9.8444C7.81001 11.0667 6.32218 10.819 4.61067 9.10728L1.87415 6.37057C0.162631 4.65924 -0.085433 3.1716 1.13684 1.94895L1.60896 1.47683C1.71429 1.3715 1.8533 1.31642 1.99418 1.31642C2.08108 1.31642 2.16892 1.33726 2.25024 1.38043C2.86324 1.7048 3.60055 2.95368 3.60669 2.96429C3.69025 3.11074 3.72207 3.26353 3.69173 3.37295C3.67312 3.43995 3.63162 3.49094 3.56444 3.52853L3.53653 3.54788C3.37779 3.68038 3.00002 4.00084 2.92093 4.11752C2.80704 4.28575 2.73148 4.451 2.69185 4.61346C2.55953 4.34958 2.45271 4.04401 2.41754 3.70513C2.40675 3.60296 2.31575 3.5302 2.21302 3.53913C2.11086 3.54993 2.03661 3.6413 2.04703 3.74365C2.18139 5.03757 3.18779 5.87983 3.2304 5.91501C3.23506 5.91891 3.24064 5.92022 3.24548 5.92357L5.22032 7.8984C5.22869 7.90678 5.23725 7.91404 5.24563 7.92204C5.25214 7.93172 5.25642 7.94232 5.26498 7.95088C5.30015 7.98568 6.14037 8.80078 7.42349 8.93402C7.43001 8.93458 7.43652 8.93495 7.44285 8.93495C7.53701 8.93495 7.61778 8.86368 7.62783 8.76821C7.63843 8.66586 7.56399 8.57449 7.46183 8.56369C7.06824 8.52294 6.71968 8.40756 6.42919 8.27376C6.57174 8.23096 6.71671 8.15987 6.86353 8.06031C6.98022 7.98103 7.30067 7.60363 7.43298 7.44489L7.45234 7.41679C7.48993 7.34998 7.54092 7.3083 7.60791 7.2895C7.71678 7.25991 7.86994 7.29081 8.01453 7.37325C8.3642 7.57832 9.33078 8.22184 9.60024 8.73099C9.71358 8.94426 9.67487 9.20181 9.50441 9.37228Z" fill="#656565"/>
<path d="M5.09125 0C4.98834 0 4.90516 0.0831844 4.90516 0.186095C4.90516 0.289005 4.98834 0.37219 5.09125 0.37219C8.23477 0.37219 10.7923 2.92969 10.7923 6.0732C10.7923 6.17612 10.8755 6.2593 10.9784 6.2593C11.0813 6.2593 11.1645 6.17612 11.1645 6.0732C11.1645 2.72443 8.44003 0 5.09125 0Z" fill="#656565"/>
<path d="M5.09125 1.6808C7.51346 1.6808 9.48384 3.65136 9.48384 6.07339C9.48384 6.1763 9.56702 6.25948 9.66993 6.25948C9.77284 6.25948 9.85603 6.1763 9.85603 6.07339C9.85603 3.4461 7.71854 1.30861 5.09125 1.30861C4.98834 1.30861 4.90516 1.3918 4.90516 1.49471C4.90516 1.59762 4.98834 1.6808 5.09125 1.6808Z" fill="#656565"/>
<path d="M5.09125 2.98942C6.79216 2.98942 8.17578 4.37322 8.17578 6.07394C8.17578 6.17685 8.25896 6.26004 8.36187 6.26004C8.46478 6.26004 8.54797 6.17685 8.54797 6.07394C8.54797 4.16796 6.99724 2.61723 5.09125 2.61723C4.98834 2.61723 4.90516 2.70041 4.90516 2.80332C4.90516 2.90623 4.98834 2.98942 5.09125 2.98942Z" fill="#656565"/>
</svg>
