<svg width="11" height="11" viewBox="0 0 11 11" fill="none" xmlns="http://www.w3.org/2000/svg">
<path d="M9.3891 1.6109C8.35027 0.572113 6.9691 0 5.5 0C4.0309 0 2.64973 0.572113 1.6109 1.6109C0.572113 2.64973 0 4.0309 0 5.5C0 6.9691 0.572113 8.35027 1.6109 9.3891C2.64973 10.4279 4.0309 11 5.5 11C6.24235 11 6.96268 10.8545 7.64096 10.5676L7.37587 9.94098C6.78194 10.1922 6.15079 10.3196 5.5 10.3196C2.84247 10.3196 0.680412 8.15753 0.680412 5.5C0.680412 2.84247 2.84247 0.680412 5.5 0.680412C8.15753 0.680412 10.3196 2.84247 10.3196 5.5C10.3196 6.66403 9.60438 7.1942 8.93985 7.1942C8.27533 7.1942 7.56013 6.66405 7.56013 5.5C7.56013 4.36403 6.63597 3.43987 5.5 3.43987C4.36403 3.43987 3.43987 4.36405 3.43987 5.5C3.43987 6.63595 4.36403 7.56013 5.5 7.56013C6.17259 7.56013 6.77087 7.23612 7.1471 6.73604C7.24344 6.93057 7.36469 7.10654 7.51089 7.26025C7.88768 7.65643 8.39515 7.87459 8.93985 7.87459C9.48456 7.87459 9.99204 7.65641 10.3688 7.26025C10.7817 6.82612 11 6.21743 11 5.5C11 4.0309 10.4279 2.64973 9.3891 1.6109ZM5.5 6.87972C4.73923 6.87972 4.12028 6.26077 4.12028 5.5C4.12028 4.73923 4.73923 4.12028 5.5 4.12028C6.26077 4.12028 6.87972 4.73923 6.87972 5.5C6.87972 6.26077 6.26077 6.87972 5.5 6.87972Z" fill="#656565"/>
</svg>
