<svg width="18" height="18" viewBox="0 0 18 18" fill="none" xmlns="http://www.w3.org/2000/svg">
<path d="M12.7333 17H5.26667C2.92 17 1 15.08 1 12.7333V5.26667C1 2.92 2.92 1 5.26667 1H12.7333C15.08 1 17 2.92 17 5.26667V12.7333C17 15.08 15.08 17 12.7333 17Z" stroke="#656565" stroke-miterlimit="10" stroke-linecap="round" stroke-linejoin="round"/>
<path d="M9.00026 12.7349C11.0621 12.7349 12.7336 11.0634 12.7336 9.00156C12.7336 6.9397 11.0621 5.26823 9.00026 5.26823C6.93839 5.26823 5.26692 6.9397 5.26692 9.00156C5.26692 11.0634 6.93839 12.7349 9.00026 12.7349Z" stroke="#656565" stroke-miterlimit="10" stroke-linecap="round" stroke-linejoin="round"/>
<path d="M13.2664 4.73333C13.561 4.73333 13.7997 4.49455 13.7997 4.2C13.7997 3.90545 13.561 3.66667 13.2664 3.66667C12.9719 3.66667 12.7331 3.90545 12.7331 4.2C12.7331 4.49455 12.9719 4.73333 13.2664 4.73333Z" stroke="#656565" stroke-miterlimit="10" stroke-linecap="round" stroke-linejoin="round"/>
</svg>
