<svg width="11" height="8" viewBox="0 0 11 8" fill="none" xmlns="http://www.w3.org/2000/svg">
<path d="M9.96886 0H1.03114C0.461662 0 0 0.4477 0 1V7C0 7.55228 0.461662 8 1.03114 8H9.96886C10.5383 8 11 7.55228 11 7V1C11 0.4477 10.5383 0 9.96886 0ZM10.6563 6.8518L7.40495 3.69867L10.6563 1.6894V6.8518ZM1.03114 0.333333H9.96886C10.3479 0.333333 10.6563 0.632383 10.6563 1V1.2944L5.9241 4.2189C5.668 4.37712 5.3409 4.37223 5.09066 4.20718L0.343713 1.07825V1C0.343713 0.632383 0.652109 0.333333 1.03114 0.333333ZM0.343713 1.48087L3.6409 3.65418L0.343713 6.8518V1.48087ZM9.96886 7.66667H1.03114C0.748022 7.66667 0.504588 7.49965 0.399377 7.26202L3.92586 3.84202L4.89767 4.48258C5.08429 4.60563 5.30012 4.66732 5.51628 4.66732C5.7217 4.66732 5.92745 4.61165 6.10855 4.49983L7.11261 3.87933L10.6006 7.26202C10.4954 7.49965 10.252 7.66667 9.96886 7.66667Z" fill="#656565"/>
</svg>
