<svg width="16" height="16" viewBox="0 0 16 16" fill="none" xmlns="http://www.w3.org/2000/svg">
<path d="M8 0C3.58879 0 0 3.58879 0 8C0 12.4112 3.58879 16 8 16C12.4113 16 16 12.4112 16 8C16 3.58879 12.4113 0 8 0ZM15.3649 7.686H13.7347C13.6931 6.17119 13.3514 4.72969 12.7494 3.49815C12.9695 3.33512 13.1822 3.15987 13.3869 2.97306C14.5508 4.21955 15.2883 5.86866 15.3649 7.686ZM9.87917 2.47765C9.67847 1.78623 9.44506 1.23439 9.18457 0.828243C10.2783 1.20395 11.2368 2.08779 11.9331 3.29681C11.4031 3.63229 10.8345 3.89684 10.2394 4.08587C10.1413 3.5061 10.0208 2.96552 9.87917 2.47765ZM9.63103 4.25082C9.10167 4.36993 8.55548 4.43127 8.00017 4.43127C7.44477 4.43127 6.89849 4.36989 6.36901 4.25074C6.75313 1.94775 7.45092 0.627996 8 0.627996C8.54912 0.627996 9.24691 1.94775 9.63103 4.25082ZM6.08495 7.686C6.09671 6.64864 6.16638 5.70685 6.27632 4.87358C6.83645 4.99613 7.41362 5.05926 8.00017 5.05926C8.58663 5.05926 9.16372 4.99613 9.72372 4.87363C9.83366 5.70689 9.90329 6.64868 9.91509 7.68596H6.08495V7.686ZM9.91509 8.314C9.90333 9.35145 9.83366 10.2933 9.72368 11.1267C9.16368 11.0042 8.58659 10.9411 8.00017 10.9411C7.41366 10.9411 6.83649 11.0042 6.27636 11.1267C6.16638 10.2934 6.09671 9.35149 6.08495 8.314H9.91509ZM6.81552 0.828243C6.55502 1.23439 6.32162 1.78623 6.12091 2.47765C5.97928 2.96552 5.85883 3.50602 5.76073 4.08574C5.16564 3.89672 4.59706 3.6322 4.06711 3.29673C4.76331 2.08775 5.72184 1.20395 6.81552 0.828243ZM5.66524 4.71424C5.54014 5.63903 5.46888 6.64491 5.45691 7.68604H2.8936C2.93496 6.27012 3.25436 4.95623 3.77518 3.85539C4.36629 4.22424 5.00098 4.5124 5.66524 4.71424ZM5.45695 8.314C5.46892 9.35526 5.54018 10.3613 5.66532 11.2861C5.00111 11.4879 4.36642 11.7761 3.7753 12.1449C3.2544 11.044 2.93496 9.73005 2.8936 8.314H5.45695ZM5.76078 11.9146C5.85887 12.4942 5.97932 13.0346 6.12091 13.5224C6.32162 14.2138 6.55502 14.7657 6.81552 15.1718C5.72192 14.7961 4.76343 13.9124 4.06724 12.7036C4.59714 12.3681 5.16569 12.1036 5.76078 11.9146ZM6.36905 11.7496C6.89849 11.6305 7.44477 11.5691 8.00013 11.5691C8.5554 11.5691 9.10159 11.6304 9.63095 11.7496C9.24678 14.0524 8.54908 15.372 8 15.372C7.45092 15.372 6.75322 14.0524 6.36905 11.7496ZM9.18453 15.1718C9.44502 14.7657 9.67842 14.2138 9.87913 13.5224C10.0207 13.0346 10.1412 12.4942 10.2393 11.9145C10.8344 12.1036 11.4029 12.3681 11.9328 12.7035C11.2366 13.9123 10.2782 14.7961 9.18453 15.1718ZM10.3348 11.2861C10.4599 10.3612 10.5311 9.35526 10.5431 8.314H13.1064C13.0651 9.73 12.7456 11.0439 12.2248 12.1449C11.6337 11.776 10.999 11.4878 10.3348 11.2861ZM10.5431 7.686C10.5312 6.64491 10.4599 5.63903 10.3348 4.71428C10.9991 4.51249 11.6338 4.22432 12.2249 3.85539C12.7457 4.95623 13.0651 6.27008 13.1064 7.686H10.5431ZM12.9389 2.53187C12.7808 2.67489 12.6173 2.81028 12.4492 2.93802C12.3371 2.74698 12.2185 2.56201 12.0929 2.38412C11.8237 2.00276 11.5318 1.66406 11.2214 1.37008C11.8487 1.67612 12.4265 2.06849 12.9389 2.53187ZM3.90714 2.38412C3.78154 2.56201 3.66289 2.74702 3.55086 2.93802C3.38268 2.81028 3.21923 2.67493 3.06102 2.53191C3.57355 2.06854 4.15131 1.67612 4.77867 1.37008C4.46823 1.66402 4.17634 2.00276 3.90714 2.38412ZM2.61309 2.9731C2.81782 3.15987 3.0305 3.33512 3.25067 3.49811C2.64872 4.72965 2.30692 6.17115 2.26535 7.686H0.635155C0.711729 5.86866 1.44921 4.21955 2.61309 2.9731ZM0.635155 8.314H2.26535C2.30692 9.82893 2.64876 11.2706 3.25076 12.5021C3.03063 12.6651 2.81794 12.8403 2.61326 13.0271C1.44925 11.7806 0.711729 10.1315 0.635155 8.314ZM3.06123 13.4683C3.2194 13.3253 3.38285 13.19 3.55098 13.0623C3.66302 13.2532 3.78162 13.4381 3.90714 13.616C4.1763 13.9973 4.46819 14.336 4.77863 14.63C4.15139 14.324 3.57372 13.9316 3.06123 13.4683ZM12.0929 13.616C12.2184 13.4381 12.337 13.2532 12.4491 13.0623C12.6172 13.19 12.7806 13.3254 12.9388 13.4684C12.4263 13.9317 11.8487 14.324 11.2214 14.63C11.5318 14.336 11.8237 13.9973 12.0929 13.616ZM13.3867 13.0272C13.1821 12.8404 12.9694 12.6651 12.7493 12.5021C13.3513 11.2706 13.6931 9.82893 13.7347 8.31404H15.3649C15.2883 10.1315 14.5508 11.7807 13.3867 13.0272Z" fill="#656565"/>
</svg>
