<svg width="17" height="15" viewBox="0 0 17 15" fill="none" xmlns="http://www.w3.org/2000/svg">
<path fill-rule="evenodd" clip-rule="evenodd" d="M16.8648 0.132967C16.9762 0.246723 17.0233 0.412999 16.989 0.572027C16.4953 2.86252 15.443 8.87777 15.1946 14.5527C15.1873 14.7202 15.0953 14.8707 14.9532 14.9476C14.8112 15.0246 14.6408 15.0162 14.5061 14.9258C12.4053 13.5133 8.19597 10.8073 7.61341 10.4366C7.50309 10.3662 7.42704 10.2494 7.40493 10.1161C7.38283 9.98271 7.41683 9.84593 7.49817 9.74074C7.56178 9.65852 7.62996 9.56814 7.70414 9.4698C8.09192 8.95558 8.64504 8.22227 9.57485 7.29058C9.75344 7.1117 10.0366 7.11836 10.2074 7.30548C10.3781 7.49261 10.3718 7.78933 10.1932 7.9682C9.38615 8.77689 8.88653 9.41674 8.51101 9.91249C9.64428 10.6399 12.4544 12.452 14.3412 13.7041C14.6196 8.75083 15.449 3.69718 15.9601 1.12258C12.0954 2.28105 5.41157 5.17464 1.63205 6.89645L4.90442 8.19067C6.37622 7.18305 9.63158 5.07231 12.3327 3.71352C12.5554 3.60148 12.8227 3.69983 12.9296 3.93322C13.0366 4.1666 12.9426 4.44662 12.7199 4.55867C9.94867 5.95276 6.55611 8.16977 5.2063 9.10455C5.08651 9.18752 4.93599 9.20524 4.80164 9.15208L0.289382 7.36755C0.119507 7.30033 0.00523997 7.13223 0.000175759 6.94202C-0.0048974 6.75189 0.100234 6.57733 0.266271 6.50036C3.9266 4.80243 12.3176 1.11091 16.4427 0.0144011C16.5934 -0.0256865 16.7533 0.0192106 16.8648 0.132967Z" fill="#656565"/>
</svg>
