<svg width="382" height="401" viewBox="0 0 382 401" fill="none" xmlns="http://www.w3.org/2000/svg">
<path d="M204 131C208.109 130.861 212.202 131.567 216.026 133.076C219.85 134.584 223.324 136.863 226.23 139.77C229.137 142.677 231.416 146.15 232.924 149.974C234.433 153.798 235.139 157.892 235 162M197 104C205.663 103.991 214.238 105.74 222.205 109.142C230.172 112.544 237.366 117.529 243.349 123.793C249.333 130.058 253.983 137.472 257.017 145.586C260.051 153.701 261.406 162.346 261 171M188 78.0001C201.516 77.6858 214.949 80.2006 227.437 85.3832C239.924 90.5657 251.19 98.3015 260.512 108.094C269.834 117.887 277.006 129.52 281.567 142.248C286.129 154.975 287.979 168.515 287 182" fill="white"/>
<path d="M204 131C208.109 130.861 212.202 131.567 216.026 133.076C219.85 134.584 223.324 136.863 226.23 139.77C229.137 142.677 231.416 146.15 232.924 149.974C234.433 153.798 235.139 157.892 235 162M197 104C205.663 103.991 214.238 105.74 222.205 109.142C230.172 112.544 237.366 117.529 243.349 123.793C249.333 130.058 253.983 137.472 257.017 145.586C260.051 153.701 261.406 162.346 261 171M188 78.0001C201.516 77.6858 214.949 80.2006 227.437 85.3832C239.924 90.5657 251.19 98.3015 260.512 108.094C269.834 117.887 277.006 129.52 281.567 142.248C286.129 154.975 287.979 168.515 287 182" stroke="#656565" stroke-opacity="0.78" stroke-width="10" stroke-linecap="round"/>
<path fill-rule="evenodd" clip-rule="evenodd" d="M30 177C30 86 47 30 191 30C335 30 352 86 352 177C352 268 335 324 191 324L165 323L112 386C108 390 104 387 104 383V314C98 314 73 302 66 295C44 272 30 255 30 177ZM0 177C0 51 55 0 191 0C327 0 382 51 382 177C382 303 327 354 191 354C181 354 173 354 159 352L121 395C114 403 93 406 93 382V340C87 340 73 334 54 322C35 309 0 278 0 177ZM223 219C229.667 210.333 237.667 209 247 215L283 242C288.333 248.667 286 258 276 270C266 282 256.667 287 248 285C212.667 277 178.667 257 146 225C113.333 193 93 158.333 85 121C85 107.667 93.3333 96.3333 110 87C118.667 81 126 82.6667 132 92L157 127C161 135 158.667 142.333 150 149C111 164 201 261 223 219Z" fill="#656565" fill-opacity="0.78"/>
</svg>
