<svg width="19" height="12" viewBox="0 0 19 12" fill="none" xmlns="http://www.w3.org/2000/svg">
<path fill-rule="evenodd" clip-rule="evenodd" d="M0.117694 0.17777C0.212694 0.0650501 0.352594 0 0.500004 0H4.02011C4.26502 0 4.47388 0.1774 4.51352 0.41907C4.6583 1.30183 5.13441 3.00624 6.25353 4.6068C6.41176 4.8332 6.35657 5.1449 6.13026 5.3031C5.90395 5.4614 5.59222 5.4062 5.43398 5.1799C4.36528 3.6514 3.8333 2.04415 3.60697 1H1.1172C1.54612 2.73799 2.72252 5.69 4.4968 7.9198C5.46937 9.1421 6.52569 9.9263 7.43935 10.3978C8.3678 10.877 9.1144 11.0165 9.4624 10.9985C9.4751 10.9979 9.4878 10.9977 9.5006 10.998C9.6625 11.002 9.8593 10.9576 10.0055 10.8385C10.1326 10.735 10.2869 10.5228 10.2869 10.046V8.5252C10.2869 8.2323 10.4017 7.9364 10.6468 7.7466C10.9056 7.5461 11.2439 7.5174 11.5465 7.6576C11.8678 7.8065 12.2351 7.9968 12.4594 8.1176C12.4721 8.1245 12.4845 8.1318 12.4965 8.1397C13.6336 8.8856 14.7291 10.0836 15.4236 10.9732C15.433 10.9852 15.4421 10.9915 15.4481 10.9946C15.454 10.9975 15.4575 10.9978 15.4592 10.9978H17.9749C17.9814 10.9978 17.9844 10.9969 17.985 10.9968C17.9857 10.9965 17.986 10.9964 17.9865 10.9961C17.9877 10.9952 17.9921 10.9916 17.9958 10.9834C17.9995 10.9752 18.0006 10.9667 17.9997 10.9596C17.9991 10.9545 17.9971 10.9444 17.9846 10.9293C17.3601 10.1726 16.5297 9.244 15.8062 8.4348C15.5494 8.1476 15.3061 7.8755 15.0902 7.6315C14.5909 7.0671 14.5547 6.2389 14.9392 5.6192C15.7818 4.261 16.8907 2.31166 17.2328 1H15.1905C15.1892 1 15.1828 1.00001 15.1709 1.00839C15.1581 1.01739 15.1413 1.03502 15.1288 1.06334C14.4163 2.67115 12.9145 4.6556 11.8216 5.6526C11.5159 5.9314 11.1049 5.9759 10.772 5.7833C10.4607 5.6032 10.2869 5.2589 10.2869 4.8934V1H7.6158C7.6517 1.06664 7.6869 1.13499 7.7207 1.20462C7.9234 1.62143 8.1086 2.14048 8.1086 2.64149C8.1086 2.85565 8.1103 3.17975 8.1124 3.5582C8.1177 4.5464 8.125 5.9053 8.1084 6.6453C8.1023 6.9214 7.8734 7.1402 7.5974 7.134C7.32129 7.1278 7.1025 6.899 7.10869 6.6229C7.12495 5.8979 7.11778 4.5723 7.11246 3.5869C7.11037 3.20057 7.10857 2.86652 7.10857 2.64149C7.10857 2.36213 6.99751 2.00402 6.82144 1.64197C6.64872 1.28681 6.44055 0.98285 6.30547 0.82455C6.17885 0.67617 6.15009 0.4677 6.2318 0.29057C6.3135 0.11344 6.49076 0 6.68582 0H10.7869C11.0631 0 11.2869 0.22386 11.2869 0.5V4.7831C12.2736 3.8329 13.592 2.06303 14.2145 0.6582C14.3777 0.28994 14.7401 0 15.1905 0H17.2391C17.8596 0 18.3758 0.57253 18.2044 1.23709C17.8221 2.71965 16.6227 4.8024 15.7889 6.1463C15.6216 6.416 15.6518 6.7571 15.8392 6.9689C16.0474 7.2042 16.2851 7.4701 16.5381 7.753C17.2649 8.5658 18.1175 9.5193 18.7559 10.2928C19.3037 10.9566 18.8727 11.9978 17.9749 11.9978H15.4592C15.1271 11.9978 14.8292 11.8367 14.6354 11.5886C13.9725 10.7394 12.964 9.6475 11.9659 8.9877C11.7896 8.893 11.5323 8.7596 11.2869 8.6411V10.046C11.2869 10.7685 11.0368 11.2883 10.637 11.6139C10.2638 11.9178 9.8215 12.0025 9.4952 11.9981C8.9082 12.0229 7.9903 11.8075 6.98073 11.2864C5.94555 10.7522 4.7776 9.8788 3.71429 8.5425C1.60659 5.8936 0.304904 2.31716 0.00722357 0.58467C-0.0177364 0.43938 0.0226836 0.29049 0.117694 0.17777ZM11.2894 8.5013C11.2895 8.5014 11.2893 8.502 11.2888 8.5032L11.2894 8.5013ZM11.1261 8.5649H11.126H11.1261ZM11.2943 4.9357C11.2942 4.9357 11.2938 4.9351 11.2931 4.9338C11.294 4.935 11.2944 4.9356 11.2943 4.9357Z" fill="#656565"/>
</svg>
