<svg width="11" height="11" viewBox="0 0 11 11" fill="none" xmlns="http://www.w3.org/2000/svg">
<path fill-rule="evenodd" clip-rule="evenodd" d="M2.35585 0.858753C5.19503 -0.63657 7.47523 0.0854355 8.74741 1.02804C10.5666 2.37593 12.0196 5.32548 10.0769 8.22378C9.04645 9.76122 7.61798 10.4238 6.23478 10.6028C4.91514 10.7736 3.63347 10.506 2.75372 10.1462L0.385912 10.9834C0.28644 11.0186 0.175709 10.9969 0.0969253 10.9267C0.0181417 10.8565 -0.0162138 10.749 0.00726496 10.6461L0.630738 7.9141C-0.541904 4.8218 0.3914 2.79173 1.10498 2.11889C1.22129 2.00923 1.40447 2.01462 1.51412 2.13094C1.62378 2.24727 1.61838 2.43048 1.50207 2.54015C0.985379 3.02733 0.0493079 4.82446 1.20225 7.7876C1.22325 7.8415 1.22758 7.90056 1.2147 7.957L0.688589 10.2624L2.66631 9.56305C2.73521 9.53867 2.81078 9.54134 2.87784 9.57034C3.67883 9.91748 4.90623 10.191 6.16046 10.0287C7.40519 9.86763 8.67267 9.27913 9.59614 7.90142C11.3131 5.33978 10.059 2.72035 8.40281 1.49323C7.30725 0.681451 5.31016 0.0109718 2.74611 1.30876C2.63768 1.87423 2.57925 2.73103 2.74336 3.6371C2.9202 4.61349 3.35191 5.63052 4.24009 6.41198C6.21684 8.1513 7.72264 7.57884 8.26735 7.05368L7.10262 6.3777L6.44294 6.96672C6.36439 7.03683 6.254 7.05877 6.15461 7.02404C5.83079 6.91074 5.33419 6.67997 4.87341 6.348C4.41778 6.01969 3.95991 5.56574 3.77372 4.9942C3.74458 4.90476 3.76072 4.80674 3.817 4.73136L4.26155 4.13595L3.74243 2.91589C3.58594 2.98674 3.40414 3.09144 3.28254 3.22043C3.17288 3.33676 2.9897 3.34214 2.87339 3.23247C2.75709 3.1228 2.7517 2.93959 2.86135 2.82327C3.1613 2.5051 3.62846 2.32384 3.82232 2.26944C3.96239 2.23013 4.10987 2.30092 4.16683 2.4348L4.85934 4.06241C4.89975 4.15725 4.88661 4.26638 4.82496 4.34897L4.37645 4.94968C4.53304 5.29682 4.84348 5.61292 5.21176 5.87825C5.55149 6.12303 5.91554 6.30667 6.18853 6.41783L6.87362 5.80606C6.96699 5.72269 7.10337 5.70879 7.21168 5.77167L8.84408 6.71905C8.97953 6.79773 9.02792 6.9699 8.95313 7.10758C8.44807 8.03771 6.33719 9.02828 3.85774 6.84665C2.84639 5.95681 2.36709 4.80773 2.17376 3.74029C1.98091 2.6755 2.06906 1.67546 2.20823 1.05182C2.22673 0.96892 2.2807 0.898329 2.35585 0.858753Z" fill="#656565"/>
</svg>
